<svg width="416" height="246" viewBox="0 0 416 246" fill="none" xmlns="http://www.w3.org/2000/svg">
<rect y="30" width="416" height="216" rx="36" fill="#07966E"/>
<rect x="12" y="42" width="392" height="192" rx="26" fill="#09BC8A" stroke="white" stroke-width="8"/>
<rect x="16" y="85" width="384" height="107" fill="#07966E"/>
<path d="M298.097 147.7V129.4H291.197V118.9H298.097V105H311.397V118.9H319.597V129.4H311.397V150.9C311.397 154.967 312.097 157.833 313.497 159.5H319.597V170H305.397C301.864 166.733 299.73 163.2 298.997 159.4C298.397 156.2 298.097 152.3 298.097 147.7Z" fill="white"/>
<path d="M273.763 129.4H266.263C265.263 130.6 264.43 132.267 263.763 134.4C263.163 136.533 262.863 138.6 262.863 140.6H277.163C277.297 138.6 277.03 136.533 276.363 134.4C275.697 132.2 274.83 130.533 273.763 129.4ZM287.363 159.5V170H261.963C257.297 166.867 253.997 163 252.063 158.4C250.197 153.733 249.263 149.033 249.263 144.3C249.263 133.367 253.397 124.9 261.663 118.9H277.863C282.33 122.167 285.363 125.633 286.963 129.3C288.563 132.967 289.363 136.667 289.363 140.4C289.363 144.133 289.063 147.333 288.463 150H263.563C263.763 151.533 264.33 153.3 265.263 155.3C266.263 157.233 267.33 158.633 268.463 159.5H287.363Z" fill="white"/>
<path d="M221.679 118.9H243.779V129.4H228.179L237.679 143.5C241.946 149.567 244.312 153.733 244.779 156C245.046 157.067 245.179 158.167 245.179 159.3C245.179 164.033 243.412 167.6 239.879 170H214.379V159.5H232.679L221.979 143.8C221.512 143.067 220.779 142.033 219.779 140.7C218.846 139.367 218.112 138.3 217.579 137.5C217.046 136.633 216.679 136 216.479 135.6C216.279 135.2 216.012 134.7 215.679 134.1C215.346 133.433 215.112 132.867 214.979 132.4C214.712 131.133 214.579 130.1 214.579 129.3C214.579 124.433 216.946 120.967 221.679 118.9Z" fill="white"/>
<path d="M170.878 118.9H181.578L183.078 122.5C184.545 121.167 185.911 120.233 187.178 119.7C188.511 119.167 190.478 118.9 193.078 118.9H202.078C204.878 121.633 207.078 125.167 208.678 129.5C210.278 133.833 211.078 138.6 211.078 143.8C211.078 154.933 207.745 163.667 201.078 170H192.578C189.045 170 186.245 169.067 184.178 167.2V185H170.878V118.9ZM184.178 159.5H193.778C196.245 155.3 197.478 150.2 197.478 144.2C197.478 138.2 196.211 133.267 193.678 129.4H184.178V159.5Z" fill="white"/>
<path d="M149.101 170V118.9H162.301V170H149.101ZM149.101 100H162.301V113.5H149.101V100Z" fill="white"/>
<path d="M115.1 112H100V100H143.8V112H128.7V170H115.1V112Z" fill="white"/>
<path d="M258 50C258 77.6142 235.614 100 208 100C180.386 100 158 77.6142 158 50C158 22.3858 180.386 0 208 0C235.614 0 258 22.3858 258 50Z" fill="#07966E"/>
<path d="M208 7.75C199.644 7.75 191.475 10.2279 184.527 14.8704C177.579 19.5129 172.164 26.1114 168.966 33.8316C165.768 41.5518 164.932 50.0469 166.562 58.2426C168.192 66.4383 172.216 73.9665 178.125 79.8753C184.034 85.784 191.562 89.8079 199.757 91.4382C207.953 93.0684 216.448 92.2317 224.168 89.0339C231.889 85.8361 238.487 80.4208 243.13 73.4728C247.772 66.5249 250.25 58.3563 250.25 50C250.238 38.7982 245.783 28.0587 237.862 20.1378C229.941 12.217 219.202 7.76183 208 7.75ZM211.25 23.7481L221.321 16.8216C227.087 19.1441 232.152 22.9236 236.019 27.7903L232.769 38.7347C232.688 38.7347 232.602 38.7753 232.521 38.8037L223.251 41.8141C223.112 41.859 222.976 41.9133 222.844 41.9766L211.25 34.0019V23.7481ZM194.691 16.8216L204.75 23.7481V34.0019L193.147 41.9928C193.016 41.9296 192.88 41.8753 192.741 41.8303L183.471 38.82C183.389 38.7916 183.304 38.7712 183.223 38.7509L179.973 27.8066C183.844 22.9311 188.916 19.1456 194.691 16.8216ZM189.41 69.2644H177.897C174.527 64.0245 172.595 57.9901 172.295 51.7672L181.232 44.9097C181.309 44.9435 181.388 44.9734 181.468 44.9991L190.742 48.0134C190.867 48.0507 190.993 48.0806 191.12 48.1028L195.504 60.8672C195.443 60.9403 195.382 61.0134 195.325 61.0906L189.597 68.9759C189.53 69.0687 189.467 69.165 189.41 69.2644ZM217.218 84.5312C211.178 86.14 204.822 86.14 198.782 84.5312L194.695 72.9937C194.748 72.9287 194.805 72.8678 194.854 72.7987L200.586 64.9094C200.653 64.8179 200.716 64.723 200.773 64.625H215.227C215.284 64.723 215.347 64.8179 215.414 64.9094L221.146 72.7987C221.195 72.8678 221.252 72.9287 221.305 72.9937L217.218 84.5312ZM226.59 69.2522C226.533 69.1528 226.47 69.0565 226.403 68.9637L220.671 61.0906C220.614 61.0134 220.553 60.9403 220.492 60.8672L224.876 48.1028C225.003 48.0806 225.129 48.0507 225.253 48.0134L234.528 44.9991C234.608 44.9734 234.687 44.9435 234.764 44.9097L243.701 51.7672C243.401 57.9901 241.469 64.0245 238.099 69.2644L226.59 69.2522Z" fill="#FFCF56"/>
</svg>
