<svg width="486" height="280" viewBox="0 0 486 280" fill="none" xmlns="http://www.w3.org/2000/svg">
<rect y="64" width="416" height="216" rx="36" fill="#A90F13"/>
<rect x="12" y="76" width="392" height="192" rx="26" fill="#CB181C" stroke="white" stroke-width="8"/>
<rect x="16" y="119" width="384" height="107" fill="#A90F13"/>
<path d="M298.097 181.7V163.4H291.197V152.9H298.097V139H311.397V152.9H319.597V163.4H311.397V184.9C311.397 188.967 312.097 191.833 313.497 193.5H319.597V204H305.397C301.864 200.733 299.73 197.2 298.997 193.4C298.397 190.2 298.097 186.3 298.097 181.7Z" fill="white"/>
<path d="M273.763 163.4H266.263C265.263 164.6 264.43 166.267 263.763 168.4C263.163 170.533 262.863 172.6 262.863 174.6H277.163C277.297 172.6 277.03 170.533 276.363 168.4C275.697 166.2 274.83 164.533 273.763 163.4ZM287.363 193.5V204H261.963C257.297 200.867 253.997 197 252.063 192.4C250.197 187.733 249.263 183.033 249.263 178.3C249.263 167.367 253.397 158.9 261.663 152.9H277.863C282.33 156.167 285.363 159.633 286.963 163.3C288.563 166.967 289.363 170.667 289.363 174.4C289.363 178.133 289.063 181.333 288.463 184H263.563C263.763 185.533 264.33 187.3 265.263 189.3C266.263 191.233 267.33 192.633 268.463 193.5H287.363Z" fill="white"/>
<path d="M221.679 152.9H243.779V163.4H228.179L237.679 177.5C241.946 183.567 244.312 187.733 244.779 190C245.046 191.067 245.179 192.167 245.179 193.3C245.179 198.033 243.412 201.6 239.879 204H214.379V193.5H232.679L221.979 177.8C221.512 177.067 220.779 176.033 219.779 174.7C218.846 173.367 218.112 172.3 217.579 171.5C217.046 170.633 216.679 170 216.479 169.6C216.279 169.2 216.012 168.7 215.679 168.1C215.346 167.433 215.112 166.867 214.979 166.4C214.712 165.133 214.579 164.1 214.579 163.3C214.579 158.433 216.946 154.967 221.679 152.9Z" fill="white"/>
<path d="M170.878 152.9H181.578L183.078 156.5C184.545 155.167 185.912 154.233 187.178 153.7C188.512 153.167 190.478 152.9 193.078 152.9H202.078C204.878 155.633 207.078 159.167 208.678 163.5C210.278 167.833 211.078 172.6 211.078 177.8C211.078 188.933 207.745 197.667 201.078 204H192.578C189.045 204 186.245 203.067 184.178 201.2V219H170.878V152.9ZM184.178 193.5H193.778C196.245 189.3 197.478 184.2 197.478 178.2C197.478 172.2 196.212 167.267 193.678 163.4H184.178V193.5Z" fill="white"/>
<path d="M149.101 204V152.9H162.301V204H149.101ZM149.101 134H162.301V147.5H149.101V134Z" fill="white"/>
<path d="M115.1 146H100V134H143.8V146H128.7V204H115.1V146Z" fill="white"/>
<path d="M258 84C258 111.614 235.614 134 208 134C180.386 134 158 111.614 158 84C158 56.3858 180.386 34 208 34C235.614 34 258 56.3858 258 84Z" fill="#A90F13"/>
<path d="M208 41.75C199.644 41.75 191.475 44.2279 184.527 48.8704C177.579 53.5129 172.164 60.1114 168.966 67.8316C165.768 75.5518 164.932 84.0469 166.562 92.2426C168.192 100.438 172.216 107.966 178.125 113.875C184.034 119.784 191.562 123.808 199.757 125.438C207.953 127.068 216.448 126.232 224.168 123.034C231.889 119.836 238.487 114.421 243.13 107.473C247.772 100.525 250.25 92.3563 250.25 84C250.238 72.7982 245.783 62.0587 237.862 54.1378C229.941 46.217 219.202 41.7618 208 41.75ZM211.25 57.7481L221.321 50.8216C227.087 53.1441 232.152 56.9236 236.019 61.7903L232.769 72.7347C232.688 72.7347 232.603 72.7753 232.521 72.8037L223.251 75.8141C223.112 75.859 222.976 75.9133 222.844 75.9766L211.25 68.0019V57.7481ZM194.691 50.8216L204.75 57.7481V68.0019L193.148 75.9928C193.016 75.9296 192.88 75.8753 192.741 75.8303L183.471 72.82C183.389 72.7916 183.304 72.7712 183.223 72.7509L179.973 61.8066C183.844 56.9311 188.916 53.1456 194.691 50.8216ZM189.41 103.264H177.897C174.527 98.0245 172.595 91.9901 172.295 85.7672L181.232 78.9097C181.309 78.9435 181.388 78.9734 181.468 78.9991L190.743 82.0134C190.867 82.0507 190.993 82.0806 191.12 82.1028L195.504 94.8672C195.443 94.9403 195.382 95.0134 195.325 95.0906L189.597 102.976C189.53 103.069 189.467 103.165 189.41 103.264ZM217.218 118.531C211.178 120.14 204.822 120.14 198.782 118.531L194.695 106.994C194.748 106.929 194.805 106.868 194.854 106.799L200.586 98.9094C200.653 98.8179 200.716 98.723 200.773 98.625H215.227C215.284 98.723 215.347 98.8179 215.414 98.9094L221.146 106.799C221.195 106.868 221.252 106.929 221.305 106.994L217.218 118.531ZM226.59 103.252C226.533 103.153 226.47 103.057 226.403 102.964L220.671 95.0906C220.614 95.0134 220.553 94.9403 220.492 94.8672L224.876 82.1028C225.003 82.0806 225.129 82.0507 225.253 82.0134L234.528 78.9991C234.608 78.9734 234.687 78.9435 234.764 78.9097L243.701 85.7672C243.401 91.9901 241.469 98.0245 238.099 103.264L226.59 103.252Z" fill="#FFCF56"/>
<path d="M367.156 93.8784C338.691 77.9741 319.578 77.2067 313.354 77.487C310.971 77.5945 308.708 76.2496 307.788 74.0483C307.195 72.6281 307.193 71.122 307.922 69.8758C334.166 24.9905 377.309 16.9555 425.362 43.8045C458.791 62.4826 476.106 93.5809 466.182 111.343C464.893 113.649 470.374 103.84 453.916 94.6443C442.927 88.5044 429.428 110.908 417.812 131.578C417.232 132.61 416.249 133.308 415.067 133.642C412.487 134.371 409.763 133.077 408.505 130.71C405.571 125.187 395.352 109.632 367.156 93.8784Z" fill="#CB181C"/>
<path d="M310.344 62.8959L310.344 62.8959C318.435 62.5311 341.055 63.6115 373.874 81.9488C387.931 89.8032 399.698 98.5102 408.86 107.818C416.395 115.472 420.486 121.82 422.582 125.765C424.74 129.826 423.197 134.867 419.137 137.024L419.136 137.024C416.544 138.402 413.551 138.272 411.161 136.936C409.812 136.183 408.658 135.046 407.878 133.578C405.415 128.943 395.262 112.973 365.752 96.4848C335.979 79.8495 316.49 79.2868 311.094 79.5303C306.5 79.7373 302.609 76.1816 302.402 71.5879C302.194 66.9944 305.75 63.1029 310.344 62.8959Z" fill="#F4F3EF" stroke="#A90F13" stroke-width="2"/>
<path d="M474.22 118.64C470.81 124.742 463.099 126.926 456.997 123.516C450.894 120.106 448.711 112.395 452.121 106.293C455.531 100.19 463.241 98.0075 469.344 101.417C475.446 104.827 477.629 112.538 474.22 118.64Z" fill="white"/>
<path d="M473.347 118.152C470.206 123.773 463.105 125.783 457.484 122.643C451.864 119.503 449.854 112.401 452.994 106.781C456.134 101.16 463.236 99.1499 468.856 102.29C474.477 105.43 476.487 112.532 473.347 118.152Z" fill="white" stroke="#A90F13" stroke-width="2"/>
</svg>
