<svg width="486" height="260" viewBox="0 0 486 260" fill="none" xmlns="http://www.w3.org/2000/svg">
<rect y="44" width="416" height="216" rx="36" fill="#A90F13"/>
<rect x="12" y="56" width="392" height="192" rx="26" fill="#CB181C" stroke="white" stroke-width="8"/>
<rect x="16" y="99" width="384" height="107" fill="#A90F13"/>
<path d="M298.097 161.7V143.4H291.197V132.9H298.097V119H311.397V132.9H319.597V143.4H311.397V164.9C311.397 168.967 312.097 171.833 313.497 173.5H319.597V184H305.397C301.864 180.733 299.73 177.2 298.997 173.4C298.397 170.2 298.097 166.3 298.097 161.7Z" fill="white"/>
<path d="M273.763 143.4H266.263C265.263 144.6 264.43 146.267 263.763 148.4C263.163 150.533 262.863 152.6 262.863 154.6H277.163C277.297 152.6 277.03 150.533 276.363 148.4C275.697 146.2 274.83 144.533 273.763 143.4ZM287.363 173.5V184H261.963C257.297 180.867 253.997 177 252.063 172.4C250.197 167.733 249.263 163.033 249.263 158.3C249.263 147.367 253.397 138.9 261.663 132.9H277.863C282.33 136.167 285.363 139.633 286.963 143.3C288.563 146.967 289.363 150.667 289.363 154.4C289.363 158.133 289.063 161.333 288.463 164H263.563C263.763 165.533 264.33 167.3 265.263 169.3C266.263 171.233 267.33 172.633 268.463 173.5H287.363Z" fill="white"/>
<path d="M221.679 132.9H243.779V143.4H228.179L237.679 157.5C241.946 163.567 244.312 167.733 244.779 170C245.046 171.067 245.179 172.167 245.179 173.3C245.179 178.033 243.412 181.6 239.879 184H214.379V173.5H232.679L221.979 157.8C221.512 157.067 220.779 156.033 219.779 154.7C218.846 153.367 218.112 152.3 217.579 151.5C217.046 150.633 216.679 150 216.479 149.6C216.279 149.2 216.012 148.7 215.679 148.1C215.346 147.433 215.112 146.867 214.979 146.4C214.712 145.133 214.579 144.1 214.579 143.3C214.579 138.433 216.946 134.967 221.679 132.9Z" fill="white"/>
<path d="M170.878 132.9H181.578L183.078 136.5C184.545 135.167 185.912 134.233 187.178 133.7C188.512 133.167 190.478 132.9 193.078 132.9H202.078C204.878 135.633 207.078 139.167 208.678 143.5C210.278 147.833 211.078 152.6 211.078 157.8C211.078 168.933 207.745 177.667 201.078 184H192.578C189.045 184 186.245 183.067 184.178 181.2V199H170.878V132.9ZM184.178 173.5H193.778C196.245 169.3 197.478 164.2 197.478 158.2C197.478 152.2 196.212 147.267 193.678 143.4H184.178V173.5Z" fill="white"/>
<path d="M149.101 184V132.9H162.301V184H149.101ZM149.101 114H162.301V127.5H149.101V114Z" fill="white"/>
<path d="M115.1 126H100V114H143.8V126H128.7V184H115.1V126Z" fill="white"/>
<path d="M258 64C258 91.6142 235.614 114 208 114C180.386 114 158 91.6142 158 64C158 36.3858 180.386 14 208 14C235.614 14 258 36.3858 258 64Z" fill="#A90F13"/>
<path d="M208 21.75C199.644 21.75 191.475 24.2279 184.527 28.8704C177.579 33.5129 172.164 40.1114 168.966 47.8316C165.768 55.5518 164.932 64.0469 166.562 72.2426C168.192 80.4383 172.216 87.9665 178.125 93.8753C184.034 99.784 191.562 103.808 199.757 105.438C207.953 107.068 216.448 106.232 224.168 103.034C231.889 99.8361 238.487 94.4208 243.13 87.4728C247.772 80.5249 250.25 72.3563 250.25 64C250.238 52.7982 245.783 42.0587 237.862 34.1378C229.941 26.217 219.202 21.7618 208 21.75ZM211.25 37.7481L221.321 30.8216C227.087 33.1441 232.152 36.9236 236.019 41.7903L232.769 52.7347C232.688 52.7347 232.603 52.7753 232.521 52.8037L223.251 55.8141C223.112 55.859 222.976 55.9133 222.844 55.9766L211.25 48.0019V37.7481ZM194.691 30.8216L204.75 37.7481V48.0019L193.148 55.9928C193.016 55.9296 192.88 55.8753 192.741 55.8303L183.471 52.82C183.389 52.7916 183.304 52.7712 183.223 52.7509L179.973 41.8066C183.844 36.9311 188.916 33.1456 194.691 30.8216ZM189.41 83.2644H177.897C174.527 78.0245 172.595 71.9901 172.295 65.7672L181.232 58.9097C181.309 58.9435 181.388 58.9734 181.468 58.9991L190.743 62.0134C190.867 62.0507 190.993 62.0806 191.12 62.1028L195.504 74.8672C195.443 74.9403 195.382 75.0134 195.325 75.0906L189.597 82.9759C189.53 83.0687 189.467 83.165 189.41 83.2644ZM217.218 98.5312C211.178 100.14 204.822 100.14 198.782 98.5312L194.695 86.9937C194.748 86.9287 194.805 86.8678 194.854 86.7987L200.586 78.9094C200.653 78.8179 200.716 78.723 200.773 78.625H215.227C215.284 78.723 215.347 78.8179 215.414 78.9094L221.146 86.7987C221.195 86.8678 221.252 86.9287 221.305 86.9937L217.218 98.5312ZM226.59 83.2522C226.533 83.1528 226.47 83.0565 226.403 82.9637L220.671 75.0906C220.614 75.0134 220.553 74.9403 220.492 74.8672L224.876 62.1028C225.003 62.0806 225.129 62.0507 225.253 62.0134L234.528 58.9991C234.608 58.9734 234.687 58.9435 234.764 58.9097L243.701 65.7672C243.401 71.9901 241.469 78.0245 238.099 83.2644L226.59 83.2522Z" fill="#FFCF56"/>
<path d="M456.528 134.572C456.528 134.572 462.776 102.71 459.537 77.6479C457.24 59.2703 458.963 39.2617 438.242 26.6731C398.202 2.32275 377.389 -1.97301 355.015 0.691743C332.64 3.35649 319.247 32.8525 319.247 32.8525L425.975 93.2459L430.983 84.5854L445.042 132.574L456.528 134.572Z" fill="#CB181C"/>
<path d="M452.622 162.782C453.128 161.611 453.61 160.485 454.116 159.221L453.22 159.084C451.231 160.244 448.956 160.825 446.655 160.76C444.353 160.695 442.115 159.987 440.194 158.716C439.239 158.189 438.468 157.384 437.984 156.407C437.499 155.429 437.325 154.328 437.484 153.249C437.838 152.184 438.597 151.301 439.597 150.791C436.243 146.384 434.682 140.871 435.228 135.36C435.774 129.849 438.385 124.749 442.538 121.085C446.69 117.421 452.076 115.466 457.612 115.611C463.148 115.756 468.424 117.992 472.378 121.869C476.791 123.436 480.784 125.999 484.048 129.358C484.364 129.612 484.613 129.939 484.773 130.312C484.933 130.684 485 131.09 484.967 131.494C484.828 131.86 484.567 132.165 484.227 132.358C483.887 132.551 483.491 132.619 483.106 132.551C482.326 132.408 481.593 132.077 480.97 131.586C483.32 134.094 484.898 137.227 485.513 140.609C486.128 143.99 485.755 147.478 484.439 150.653C484.209 151.204 483.818 151.802 483.221 151.824C482.624 151.847 482.348 151.411 482.026 151.043L477.432 145.507C477.432 145.668 477.317 145.852 477.248 146.013C475.351 150.532 471.984 154.28 467.692 156.649C464.644 161.023 460.142 164.173 454.988 165.539C454.07 165.723 452.898 165.746 452.439 164.942C452.299 164.592 452.242 164.215 452.274 163.84C452.306 163.465 452.425 163.103 452.622 162.782Z" fill="#F2F5F7"/>
<path d="M401.28 96.3242C394.549 88.4362 386.428 81.8492 377.321 76.8899C365.573 70.1572 353.023 64.932 339.968 61.3379C333.373 59.3159 326.513 58.2938 319.615 58.3056C312.679 58.3365 313.5 59 304 59.5C297.5 59.5 290.009 61.1619 287.574 59.0944C286.449 58.1296 287.069 55.9243 287 54.5C286.678 47.8841 293.174 49.8749 298.251 45.648C302.846 41.8117 309.163 39.7672 312.241 34.6214C313.505 32.508 314.079 30.0271 315.434 27.9366C318.283 23.5949 323.865 22.0098 329.034 21.5044C349.869 19.4599 369.809 29.7054 387.451 40.9158C400.086 48.91 412.422 57.7083 422.116 69.0564C428.066 75.948 433.165 85.2976 430.179 93.9351C428.847 97.7944 426.044 100.988 424.62 104.824C423.236 109.202 422.32 113.714 421.886 118.285C421.335 122.351 420.365 126.166 416 125.5C416 125.5 414.168 112.083 401.28 96.3242Z" fill="#F2F5F7"/>
</svg>
