<svg width="363" height="100" viewBox="0 0 363 100" fill="none" xmlns="http://www.w3.org/2000/svg">
<g clip-path="url(#clip0_46_1963)">
<path d="M349.505 62.3752C349.505 62.3752 352.361 47.8087 350.881 36.3509C349.83 27.9492 350.618 18.8018 341.145 13.0467C322.84 1.91443 313.325 -0.0494605 303.096 1.16878C292.867 2.38703 286.744 15.8718 286.744 15.8718L335.537 43.4818L337.827 39.5225L344.254 61.4615L349.505 62.3752Z" fill="#CB181C"/>
<path d="M347.719 75.2718C347.95 74.7362 348.171 74.2216 348.402 73.644L347.992 73.581C347.083 74.1116 346.044 74.377 344.991 74.3473C343.939 74.3176 342.916 73.994 342.038 73.4129C341.601 73.1722 341.248 72.8038 341.027 72.3571C340.806 71.9104 340.726 71.4067 340.798 70.9134C340.96 70.4265 341.308 70.0228 341.765 69.7897C340.231 67.775 339.518 65.2546 339.767 62.7352C340.017 60.2158 341.211 57.8842 343.109 56.2092C345.008 54.5342 347.47 53.6401 350.001 53.7066C352.531 53.7731 354.943 54.7952 356.751 56.5675C358.769 57.2841 360.594 58.4556 362.086 59.9912C362.231 60.1073 362.345 60.257 362.418 60.4273C362.491 60.5976 362.522 60.7832 362.506 60.9679C362.443 61.1349 362.323 61.2746 362.168 61.3628C362.013 61.451 361.832 61.4822 361.656 61.451C361.299 61.3857 360.964 61.2343 360.679 61.0099C361.754 62.1565 362.475 63.5887 362.756 65.1347C363.037 66.6808 362.867 68.2751 362.265 69.7267C362.16 69.9787 361.981 70.2518 361.708 70.2623C361.435 70.2728 361.309 70.0733 361.162 69.9052L359.062 67.3742C359.062 67.4477 359.009 67.5317 358.978 67.6053C358.11 69.6716 356.571 71.3848 354.609 72.4678C353.215 74.4675 351.157 75.9077 348.801 76.5321C348.381 76.6161 347.845 76.6266 347.635 76.259C347.571 76.0993 347.546 75.9269 347.56 75.7554C347.575 75.584 347.629 75.4184 347.719 75.2718Z" fill="#F2F5F7"/>
<path d="M268.229 35.143C267.315 38.4512 267.494 42.0639 265.982 45.141C264.627 47.9031 261.938 50.1191 261.655 53.1857C261.508 54.698 262.001 56.2628 261.655 57.7436C260.972 60.3691 257.989 61.5244 255.889 63.2467C254.132 64.7577 252.915 66.8007 252.425 69.0656C251.934 71.3306 252.195 73.6938 253.169 75.7967C251.181 76.7073 249.428 78.0617 248.046 79.756C246.664 81.4502 245.688 83.439 245.195 85.5693C244.702 87.6996 244.705 89.9146 245.202 92.0439C245.7 94.1731 246.679 96.1599 248.065 97.8512C246.532 101.086 244.914 104.51 245.156 108.091C245.397 111.672 248.012 115.442 251.604 115.442C250.04 117.118 249.118 119.293 249.001 121.582C248.884 123.872 249.58 126.129 250.966 127.955C252.351 129.782 254.337 131.06 256.574 131.564C258.81 132.069 261.153 131.767 263.188 130.712C263.819 132.154 264.796 133.419 266.031 134.395C267.267 135.37 268.723 136.027 270.272 136.307C271.821 136.587 273.416 136.482 274.915 136.001C276.414 135.52 277.771 134.677 278.868 133.548L280.968 26.1112C277.691 25.3235 269.153 31.8033 268.229 35.143Z" fill="#EDEDED"/>
<path d="M307.297 18.6023L305.911 18.4238C299.151 17.522 292.3 19.1972 286.719 23.1162C281.138 27.0352 277.237 32.9109 275.79 39.5751C273.007 52.4402 270.098 66.681 269.248 73.6754C267.494 88.1369 281.64 92.3167 281.64 92.3167C281.64 92.4952 278.616 103.155 277.628 107.408L312.548 107.419L324.762 50.6443C328.049 35.7628 322.178 21.4904 307.297 18.6023Z" fill="#FFBF9D"/>
<path d="M278.521 29.0519C277.871 29.69 277.483 30.5475 277.433 31.4566C277.382 32.3657 277.673 33.2609 278.248 33.9669C278.859 34.6452 279.644 35.1435 280.517 35.4082C281.391 35.6729 282.32 35.6938 283.205 35.4687C284.975 34.9938 286.533 33.9355 287.626 32.4651C288.38 33.5815 289.411 34.4826 290.618 35.0798C291.825 35.677 293.167 35.9498 294.511 35.8714C295.856 35.793 297.157 35.3661 298.286 34.6326C299.416 33.8991 300.335 32.8843 300.953 31.688C301.406 32.7584 302.068 33.7271 302.902 34.5368C303.736 35.3465 304.723 35.9807 305.806 36.4018C306.889 36.8229 308.046 37.0224 309.208 36.9884C310.369 36.9544 311.512 36.6876 312.569 36.2039C312.286 38.2356 312.79 40.2987 313.98 41.9702C315.169 43.6417 316.952 44.795 318.965 45.1937C318.191 46.6274 317.599 48.1513 317.2 49.7306C316.808 51.3314 317.029 53.0212 317.82 54.4671C318.43 55.2107 318.942 56.0296 319.343 56.9036C319.689 58.1008 319.164 59.3716 319.343 60.6003C319.408 61.1784 319.62 61.7302 319.959 62.2032C320.297 62.6763 320.751 63.055 321.277 63.3033C321.803 63.5516 322.384 63.6613 322.965 63.622C323.545 63.5828 324.106 63.3958 324.594 63.0788C326.001 62.1651 326.526 60.4008 326.946 58.773C328.209 54.4049 329.133 49.9457 329.708 45.4353C330.267 40.8987 329.786 36.2945 328.301 31.9715C325.654 24.7986 319.29 19.2745 312.002 16.9325C304.595 14.7324 296.659 15.1251 289.506 18.0457C286.819 19.0132 284.329 20.4576 282.155 22.3096C279.964 24.1705 278.435 26.6907 277.796 29.493" fill="#EDEDED"/>
<path d="M281.588 92.3166C288.26 93.1866 295.041 92.1299 301.132 89.271C301.132 89.271 295.335 97.5467 281.094 94.312L281.588 92.3166Z" fill="#FF9A6C"/>
<path d="M279.928 53.6479C279.858 54.1835 279.996 54.7258 280.315 55.1619C280.634 55.5981 281.108 55.8946 281.64 55.9899C281.9 56.0479 282.168 56.0529 282.43 56.0045C282.692 55.956 282.941 55.8552 283.163 55.7081C283.384 55.5609 283.574 55.3705 283.72 55.1482C283.866 54.926 283.966 54.6764 284.014 54.4146C284.084 53.8805 283.947 53.3396 283.631 52.9037C283.314 52.4678 282.842 52.1703 282.312 52.0726C282.052 52.0175 281.784 52.0147 281.522 52.0642C281.261 52.1138 281.012 52.2148 280.791 52.3614C280.569 52.508 280.378 52.6972 280.23 52.9181C280.082 53.139 279.98 53.387 279.928 53.6479Z" fill="#263238"/>
<path d="M277.891 47.063C278.111 47.3675 279.823 46.4118 282.092 46.7164C284.36 47.021 285.788 48.3442 286.061 48.1132C286.335 47.8821 285.998 47.4831 285.358 46.8739C284.484 46.0755 283.382 45.5689 282.207 45.4246C281.051 45.2669 279.874 45.4801 278.847 46.0338C278.09 46.5064 277.796 46.9264 277.891 47.063Z" fill="#263238"/>
<path d="M300.922 56.8406C300.849 57.3778 300.986 57.9227 301.305 58.3612C301.624 58.7996 302.1 59.0977 302.634 59.193C302.894 59.2496 303.162 59.2534 303.423 59.2043C303.684 59.1552 303.933 59.0543 304.154 58.9074C304.375 58.7605 304.565 58.5706 304.711 58.3491C304.858 58.1276 304.959 57.8789 305.007 57.6177C305.081 57.082 304.946 56.5384 304.629 56.1002C304.312 55.662 303.838 55.3629 303.306 55.2652C303.046 55.2101 302.778 55.2073 302.516 55.2569C302.255 55.3064 302.006 55.4075 301.785 55.554C301.563 55.7006 301.372 55.8899 301.224 56.1107C301.076 56.3316 300.973 56.5797 300.922 56.8406Z" fill="#263238"/>
<path d="M299.662 50.3922C299.882 50.6968 301.605 49.7516 303.863 50.0456C306.121 50.3397 307.559 51.684 307.832 51.4424C308.105 51.2009 307.769 50.8123 307.129 50.2032C306.254 49.4047 305.153 48.8982 303.978 48.7539C302.822 48.5961 301.645 48.8094 300.617 49.363C299.851 49.7936 299.557 50.2557 299.662 50.3922Z" fill="#263238"/>
<path d="M289.443 65.7673C288.325 65.2497 287.147 64.8723 285.936 64.6436C285.369 64.5071 284.885 64.318 284.812 63.919C284.837 63.3271 285.046 62.7579 285.411 62.2911C286.125 60.9889 286.881 59.6341 287.658 58.2058C290.809 52.3666 293.172 47.5461 292.909 47.4201C292.647 47.2941 289.926 51.915 286.776 57.7542L284.591 61.8815C284.141 62.516 283.932 63.2909 284.003 64.066C284.056 64.2767 284.158 64.472 284.3 64.6362C284.442 64.8004 284.621 64.9288 284.822 65.0112C285.123 65.1439 285.442 65.2323 285.768 65.2737C286.965 65.6009 288.202 65.7669 289.443 65.7673Z" fill="#263238"/>
<path d="M300.912 44.0699C301.122 44.8996 303.212 44.5005 305.659 44.9311C308.106 45.3617 310.101 46.3384 310.427 45.5928C310.574 45.2357 310.227 44.4585 309.429 43.6499C308.461 42.701 307.226 42.0707 305.89 41.8435C304.614 41.6324 303.304 41.8582 302.172 42.4841C301.279 43.0197 300.817 43.6709 300.912 44.0699Z" fill="#F5F5F5"/>
<path d="M278.826 42.2111C279.183 42.9883 281.073 42.4841 283.236 42.7362C285.4 42.9883 287.143 43.7864 287.668 43.0513C287.899 42.7152 287.668 42.001 287.007 41.1714C286.103 40.225 284.886 39.639 283.583 39.5225C282.271 39.3892 280.955 39.7322 279.876 40.4887C279.025 41.1294 278.668 41.833 278.826 42.2111Z" fill="#F5F5F5"/>
<path d="M322.147 61.1253C322.409 61.0518 332.46 59.5185 330.821 69.3485C329.183 79.1785 319.658 75.5132 319.689 75.2297C319.721 74.9461 322.147 61.1253 322.147 61.1253Z" fill="#FFBF9D"/>
<path d="M323.313 71.9951C323.313 71.9951 323.46 72.1526 323.733 72.3311C324.109 72.5737 324.565 72.6603 325.003 72.5727C326.106 72.3627 327.261 70.8608 327.597 69.0965C327.764 68.2581 327.739 67.3928 327.524 66.5655C327.488 66.2433 327.374 65.9349 327.191 65.6675C327.007 65.4001 326.761 65.1819 326.474 65.0322C326.29 64.9555 326.086 64.9439 325.895 64.9993C325.704 65.0547 325.538 65.1737 325.424 65.3367C325.245 65.5888 325.277 65.7883 325.214 65.7988C325.15 65.8093 325.035 65.5993 325.214 65.2107C325.312 64.9758 325.486 64.7801 325.707 64.6541C326.012 64.4989 326.365 64.4652 326.694 64.5596C327.084 64.7089 327.429 64.955 327.698 65.2747C327.966 65.5944 328.148 65.9772 328.228 66.3869C328.507 67.3063 328.554 68.2806 328.364 69.2225C327.976 71.1969 326.652 72.8772 325.161 73.0558C324.884 73.0881 324.603 73.0576 324.34 72.9667C324.076 72.8758 323.836 72.7268 323.638 72.5307C323.292 72.2366 323.271 72.0161 323.313 71.9951Z" fill="#FF9A6C"/>
<path d="M321.769 116.545C322.56 109.433 322.847 102.274 322.63 95.1208C323.596 93.2829 324.016 91.2455 322.861 89.7962C320.813 87.2232 325.623 81.9931 323.397 79.5041C321.17 77.0151 322.031 72.0791 322.031 72.0791H321.8L324.016 58.5314C324.016 58.5314 321.233 56.9141 319.112 60.9574C318.576 62.0076 315.016 70.7664 314.386 72.3207H314.123C313.609 71.6065 311.823 69.6846 308.253 70.7874C306.214 69.3377 303.984 68.1784 301.626 67.3427C298.753 66.2427 295.683 65.7504 292.61 65.8968C289.537 66.0432 286.528 66.8252 283.772 68.1933C282.422 68.8838 281.168 69.7489 280.044 70.7664C280.044 70.7664 274.131 71.0604 272.808 68.6659C271.485 66.2715 270.707 64.4651 270.707 64.4651C270.02 65.9849 269.601 67.6122 269.468 69.2751C268.04 70.9134 264.669 75.2928 265.026 78.5169C265.026 78.6219 265.026 78.727 265.026 78.832H264.333C264.707 79.3586 264.962 79.9608 265.078 80.5964C265.061 82.2716 264.767 83.9324 264.207 85.5113C263.899 86.1574 263.548 86.7819 263.156 87.3807L262.663 88.1369C262.663 88.1369 262.663 88.1369 262.61 88.1369C262.258 88.5239 261.974 88.9677 261.77 89.4496C260.541 91.403 259.512 93.4615 259.817 95.6774C260.174 98.2084 262.222 100.235 262.663 102.745C263.135 105.434 261.718 107.996 260.762 110.601C259.225 114.948 258.961 119.643 259.999 124.136C261.036 128.628 263.334 132.731 266.622 135.964H263.902C264.95 139.491 267.068 142.606 269.963 144.877C272.859 147.148 276.389 148.463 280.065 148.64C279.607 150.036 278.863 151.322 277.882 152.416C276.9 153.51 275.701 154.388 274.362 154.993C276.135 155.742 278.043 156.118 279.968 156.096C281.892 156.074 283.791 155.656 285.547 154.867C285.41 155.861 284.98 156.791 284.312 157.539C283.644 158.287 282.769 158.819 281.798 159.068C286.383 159.025 290.874 157.756 294.804 155.392C298.734 153.029 301.959 149.656 304.146 145.626C306.247 141.624 307.381 136.951 310.616 133.79C312.716 131.689 315.52 130.513 317.536 128.381C320.488 125.272 321.286 120.788 321.769 116.545Z" fill="#EDEDED"/>
<path d="M296.921 71.8796C296.961 70.9686 296.837 70.0578 296.553 69.191C294.033 69.9367 291.544 70.7874 289.107 71.743V71.8271C289.331 72.5543 289.699 73.2287 290.19 73.8099C290.681 74.3911 291.284 74.8669 291.964 75.2088C292.638 75.4592 293.369 75.5121 294.072 75.3615C294.776 75.2108 295.421 74.8627 295.934 74.3581C296.534 73.6678 296.882 72.7938 296.921 71.8796Z" fill="white"/>
<path d="M289.916 73.4339C289.916 73.4339 290.084 73.6649 290.43 74.0115C290.912 74.4969 291.519 74.8387 292.184 74.9987C292.64 75.1136 293.112 75.1526 293.581 75.1142C294.096 75.1083 294.596 74.9391 295.009 74.6311C295.469 74.2329 295.833 73.7364 296.075 73.1782C296.317 72.6201 296.43 72.0147 296.406 71.407C296.388 70.7148 296.271 70.0287 296.059 69.3696L296.385 69.5376C294.285 70.1887 292.394 70.7348 291.06 71.1024C290.356 71.3455 289.627 71.511 288.887 71.596C289.554 71.2446 290.258 70.9698 290.987 70.7768C292.3 70.3147 294.138 69.7266 296.238 69.023L296.48 68.9495L296.564 69.2015C296.803 69.913 296.934 70.6565 296.952 71.407C296.978 72.0949 296.843 72.7794 296.559 73.4064C296.274 74.0333 295.848 74.5856 295.314 75.0197C294.818 75.3842 294.218 75.5793 293.602 75.5763C293.087 75.5893 292.573 75.522 292.079 75.3768C291.363 75.1673 290.731 74.7373 290.273 74.148C290.088 73.9491 289.964 73.7012 289.916 73.4339Z" fill="#263238"/>
<path d="M273.69 91.4974C273.69 91.5604 273.06 91.1824 272.346 90.3317C271.433 89.2014 270.762 87.896 270.374 86.4961C269.985 85.0962 269.888 83.6315 270.088 82.1925C270.266 81.1423 270.561 80.4702 270.645 80.4912C270.729 80.5122 270.182 83.1797 271.075 86.2989C271.968 89.418 273.816 91.3504 273.69 91.4974Z" fill="white"/>
<path d="M276.641 96.9166C276.494 97.0322 275.118 95.3203 274.257 92.7893C273.396 90.2583 273.406 88.0634 273.595 88.0634C273.785 88.0634 274.1 90.1638 274.94 92.5583C275.78 94.9527 276.841 96.8221 276.641 96.9166Z" fill="white"/>
<path d="M315.698 89.019C315.888 89.019 316.045 90.6154 315.383 92.4532C314.722 94.2911 313.598 95.4358 313.451 95.3098C313.304 95.1838 314.102 93.9235 314.701 92.2117C315.299 90.4999 315.499 89.019 315.698 89.019Z" fill="#EDEDED"/>
<path d="M352.288 100.067C358.988 93.682 356.583 83.9465 352.792 81.9721C350.083 80.5648 346.774 79.4411 345.651 76.6055C344.527 73.7699 346.281 70.1572 345.115 67.1536C344.209 65.3235 342.667 63.8861 340.778 63.1103C338.912 62.3479 337.148 61.3566 335.527 60.1592C330.16 55.4962 332.502 45.9708 327.723 40.6882L323.722 38.1362C317.547 53.6269 318.608 70.9764 315.068 87.2757C313.924 92.5898 312.264 97.9563 312.894 103.354C313.055 105.557 313.887 107.657 315.278 109.372C315.99 110.213 316.925 110.833 317.976 111.163C319.026 111.492 320.149 111.515 321.212 111.231C321.529 111.125 321.835 110.988 322.126 110.821C326.127 108.574 329.624 107.366 342.794 103.943L352.288 100.067Z" fill="#EDEDED"/>
<path d="M324.247 44.8892C321.17 41.283 317.457 38.2716 313.294 36.0044C307.923 32.9264 302.185 30.5376 296.217 28.8944C293.202 27.97 290.066 27.5028 286.912 27.5082C283.741 27.5223 280.658 28.5489 278.111 30.4382C276.988 31.3414 272.514 32.5387 271.401 31.5935C270.886 31.1524 271.17 30.1442 271.138 29.4931C270.991 26.4684 274.824 23.6539 277.145 21.7215C279.246 19.9676 282.134 19.0329 283.541 16.6805C284.119 15.7143 284.381 14.58 285.001 13.6243C286.303 11.6394 288.855 10.9148 291.218 10.6837C300.744 9.7491 309.859 14.433 317.925 19.558C323.701 23.2128 329.341 27.2351 333.773 32.4231C336.493 35.5738 338.824 39.8481 337.459 43.7969C336.85 45.5613 335.569 47.0211 334.917 48.775C334.285 50.7766 333.866 52.8394 333.668 54.9292C333.416 56.7881 332.807 58.6049 330.811 58.3004C330.811 58.3004 330.139 52.0936 324.247 44.8892Z" fill="white"/>
<path d="M349.936 100.214C349.936 100.214 350.146 100.067 350.492 99.7207C350.965 99.1873 351.355 98.5854 351.647 97.9353C352.157 96.727 352.419 95.429 352.419 94.1178C352.419 92.8066 352.157 91.5086 351.647 90.3003C350.482 87.1496 347.321 84.2195 343.246 82.4027C341.133 81.4577 338.944 80.6918 336.703 80.1132C334.435 79.4726 332.072 78.6429 330.475 76.8575C328.879 75.0722 328.9 72.6042 329.362 70.3777C329.824 68.1513 330.412 65.7778 329.572 63.5619C329.133 62.5263 328.403 61.64 327.472 61.0098C326.6 60.3902 325.697 59.9596 324.878 59.4345C323.364 58.561 322.079 57.3409 321.128 55.8743C319.758 53.7502 319.096 51.2463 319.238 48.7224C319.395 46.9475 319.795 46.0023 319.711 45.9813C319.627 45.9603 319.574 46.1913 319.395 46.6429C319.159 47.3236 318.997 48.0278 318.912 48.7434C318.625 51.3581 319.22 53.9938 320.603 56.2314C321.569 57.8079 322.902 59.1268 324.489 60.0751C326.127 61.1254 328.144 61.997 328.879 63.8979C329.614 65.7988 329.005 68.0148 328.574 70.2832C328.302 71.4775 328.21 72.7059 328.301 73.9274C328.43 75.2381 328.979 76.4721 329.866 77.4457C331.662 79.4516 334.224 80.3127 336.503 80.9534C338.72 81.4935 340.887 82.2172 342.983 83.1168C346.921 84.8392 349.957 87.5697 351.122 90.5208C352.154 92.8281 352.244 95.4468 351.374 97.8198C350.987 98.6698 350.504 99.4731 349.936 100.214Z" fill="white"/>
<path d="M281.42 118.519C280.635 118.495 279.87 118.263 279.204 117.847C278.457 117.32 277.839 116.631 277.397 115.831C276.828 114.743 276.427 113.574 276.211 112.365C275.945 110.829 275.431 109.346 274.688 107.975C273.764 106.452 272.136 105.486 270.697 104.436C269.158 103.413 268.04 101.869 267.546 100.088C267.032 98.1399 266.904 96.11 267.168 94.1125C267.368 92.0121 267.756 89.9747 267.851 87.9267C267.955 85.9598 267.746 83.9888 267.231 82.0876C266.762 80.43 266.429 78.7371 266.234 77.0255C266.119 75.5502 266.254 74.0661 266.633 72.6357C267.175 70.5371 268.184 68.5879 269.584 66.933C270.581 65.7568 271.275 65.2317 271.222 65.1686C271.17 65.1056 271.012 65.2527 270.676 65.4942C270.188 65.8543 269.731 66.2548 269.311 66.6915C267.757 68.3166 266.621 70.2954 266.002 72.4571C265.552 73.9537 265.371 75.5182 265.467 77.0781C265.624 78.8344 265.933 80.5738 266.391 82.2766C266.871 84.105 267.059 85.9977 266.948 87.8847C266.832 89.8486 266.454 91.8861 266.234 94.018C265.968 96.1265 266.114 98.2666 266.664 100.319C267.234 102.281 268.485 103.976 270.193 105.098C271.716 106.148 273.217 107.041 274.037 108.353C274.762 109.643 275.28 111.04 275.57 112.491C275.835 113.749 276.303 114.955 276.956 116.062C277.47 116.926 278.192 117.648 279.057 118.162C279.398 118.396 279.788 118.55 280.197 118.612C280.606 118.674 281.024 118.642 281.42 118.519Z" fill="white"/>
<path d="M305.196 63.4148C305.071 64.0992 305.151 64.8055 305.427 65.4443C305.702 66.0832 306.161 66.6259 306.746 67.0039C307.33 67.3819 308.013 67.5782 308.709 67.5679C309.405 67.5576 310.082 67.3413 310.654 66.9462C311.227 66.5511 311.67 65.995 311.927 65.3483C312.184 64.7016 312.243 63.9933 312.097 63.3129C311.951 62.6325 311.607 62.0106 311.108 61.5259C310.608 61.0412 309.977 60.7154 309.292 60.5897C308.838 60.5063 308.371 60.5131 307.92 60.61C307.468 60.7068 307.04 60.8916 306.659 61.1539C306.279 61.4163 305.954 61.751 305.703 62.1389C305.452 62.5268 305.28 62.9604 305.196 63.4148Z" fill="#FF9A6C"/>
<path d="M271.894 60.1592C271.769 60.8436 271.849 61.5499 272.124 62.1887C272.4 62.8276 272.859 63.3703 273.443 63.7483C274.028 64.1263 274.711 64.3226 275.407 64.3123C276.102 64.302 276.779 64.0857 277.352 63.6906C277.925 63.2955 278.368 62.7394 278.625 62.0927C278.881 61.446 278.941 60.7377 278.795 60.0573C278.649 59.3769 278.305 58.755 277.805 58.2703C277.306 57.7856 276.674 57.4598 275.99 57.3341C275.536 57.2507 275.069 57.2575 274.617 57.3543C274.166 57.4512 273.737 57.636 273.357 57.8983C272.977 58.1607 272.652 58.4954 272.401 58.8833C272.15 59.2712 271.978 59.7047 271.894 60.1592Z" fill="#FF9A6C"/>
<path d="M263.188 130.712C262.635 131.048 262.038 131.302 261.413 131.469C259.631 131.972 257.744 131.972 255.962 131.469C254.683 131.124 253.486 130.524 252.444 129.704C251.848 129.237 251.308 128.701 250.837 128.108C250.35 127.46 249.944 126.755 249.63 126.007C248.961 124.343 248.73 122.535 248.958 120.756C249.211 118.762 250.056 116.889 251.384 115.379L251.552 115.757C250.697 115.724 249.858 115.512 249.09 115.136C248.321 114.76 247.639 114.227 247.088 113.573C245.896 112.211 245.136 110.526 244.904 108.731C244.735 106.854 244.957 104.963 245.555 103.176C246.165 101.34 246.905 99.55 247.771 97.8197V98.1033C246.352 96.3801 245.348 94.354 244.837 92.1813C244.326 90.0086 244.321 87.7475 244.822 85.5725C245.323 83.3975 246.318 81.3668 247.729 79.6372C249.14 77.9076 250.929 76.5254 252.959 75.5972L252.833 75.9543C252.15 74.4678 251.809 72.8473 251.834 71.2117C251.86 69.5761 252.251 67.9669 252.98 66.5024C253.664 65.1202 254.647 63.9076 255.858 62.9527C257.044 62.039 258.294 61.3458 259.355 60.4847C260.436 59.7457 261.189 58.6164 261.455 57.334C261.518 56.0816 261.518 54.8267 261.455 53.5743C261.521 52.3711 261.882 51.2026 262.505 50.1716C263.083 49.1844 263.745 48.3232 264.333 47.4935C264.916 46.7253 265.429 45.9064 265.866 45.0465C266.236 44.2769 266.524 43.4709 266.727 42.6416C267.116 41.0977 267.273 39.722 267.462 38.6087C267.651 37.4955 267.798 36.6448 267.945 36.0777C268.019 35.7837 268.093 35.5736 268.135 35.4266C268.15 35.3536 268.174 35.283 268.208 35.2166C268.17 35.5138 268.114 35.8084 268.04 36.0987C267.924 36.6658 267.788 37.527 267.641 38.6402C267.491 40.0056 267.27 41.3622 266.979 42.7046C266.791 43.5591 266.509 44.3903 266.139 45.1831C265.708 46.0637 265.198 46.9038 264.616 47.6931C264.028 48.5332 263.377 49.3944 262.831 50.3606C262.227 51.3394 261.867 52.4486 261.781 53.5953C261.879 54.86 261.907 56.1292 261.865 57.397C261.596 58.7902 260.803 60.0271 259.649 60.8522C258.546 61.7449 257.296 62.4591 256.162 63.3412C255.01 64.2541 254.077 65.4132 253.432 66.7334C252.739 68.1328 252.369 69.6697 252.349 71.231C252.329 72.7922 252.659 74.3381 253.316 75.7548L253.432 75.9963L253.179 76.1118C251.226 77.0074 249.504 78.3394 248.146 80.0053C246.789 81.6711 245.831 83.6264 245.349 85.7205C244.866 87.8146 244.87 89.9915 245.361 92.0838C245.852 94.176 246.816 96.1276 248.18 97.7882L248.285 97.9247L248.212 98.0718C247.359 99.7701 246.622 101.524 246.006 103.323C245.429 105.042 245.211 106.861 245.366 108.668C245.574 110.363 246.284 111.958 247.403 113.247C247.91 113.853 248.536 114.348 249.243 114.7C249.949 115.052 250.721 115.255 251.51 115.295H252.024L251.678 115.663C250.403 117.099 249.587 118.884 249.336 120.788C249.099 122.502 249.305 124.248 249.934 125.86C250.228 126.583 250.609 127.268 251.069 127.898C251.539 128.489 252.083 129.018 252.686 129.473C253.688 130.281 254.841 130.881 256.078 131.237C257.815 131.762 259.662 131.809 261.424 131.374C262.6 131.017 263.188 130.67 263.188 130.712Z" fill="#263238"/>
</g>
<path d="M133.75 28.2351C133.585 25.3237 135.844 22.8285 138.796 22.662L222.958 17.9126C225.909 17.746 228.434 19.9712 228.599 22.8826L229.863 45.287C230.027 48.1984 227.768 50.6936 224.817 50.8601L140.655 55.6095C137.704 55.7761 135.178 53.5509 135.014 50.6395L133.75 28.2351Z" fill="#CB181C"/>
<path d="M216.496 36.6524C216.383 35.994 216.27 35.3089 216.154 34.5971C216.05 33.8846 215.956 33.1769 215.874 32.474C215.802 31.7705 215.748 31.1034 215.713 30.4729L215.648 29.3347L217.7 29.2189L217.765 30.3571C217.802 31.0197 217.82 31.7156 217.818 32.4447C217.826 33.1626 217.813 33.8763 217.778 34.5858C217.754 35.2948 217.722 35.9613 217.682 36.5854L216.496 36.6524ZM217.289 40.7406C216.904 40.7623 216.599 40.667 216.372 40.4546C216.157 40.2417 216.037 39.9321 216.015 39.526C215.993 39.152 216.083 38.8413 216.284 38.5942C216.494 38.3357 216.781 38.1962 217.144 38.1757C217.519 38.1546 217.819 38.2502 218.045 38.4626C218.271 38.6643 218.396 38.9735 218.419 39.3903C218.44 39.7644 218.346 40.0806 218.135 40.3391C217.924 40.5869 217.642 40.7207 217.289 40.7406Z" fill="white"/>
<path d="M210.266 41.1208C209.422 41.1684 208.658 41.0239 207.974 40.6872C207.29 40.3399 206.736 39.8458 206.314 39.2049C205.903 38.5634 205.673 37.8205 205.626 36.9762C205.578 36.1319 205.723 35.3679 206.059 34.6842C206.407 33.9999 206.901 33.452 207.542 33.0405C208.183 32.6184 208.926 32.3835 209.77 32.3359C210.604 32.2888 211.363 32.439 212.047 32.7863C212.731 33.123 213.278 33.6121 213.69 34.2536C214.112 34.8945 214.347 35.6371 214.395 36.4813C214.442 37.3256 214.292 38.0899 213.945 38.7743C213.608 39.458 213.12 40.0109 212.479 40.433C211.837 40.8445 211.1 41.0737 210.266 41.1208ZM210.167 39.3734C210.627 39.3475 211.032 39.212 211.383 38.9671C211.733 38.7115 211.998 38.3802 212.179 37.9733C212.37 37.5552 212.446 37.0952 212.407 36.5935C212.388 36.0799 212.261 35.6315 212.025 35.2481C211.799 34.8534 211.498 34.5541 211.122 34.3502C210.746 34.1463 210.328 34.0573 209.869 34.0832C209.409 34.1092 208.999 34.2502 208.638 34.5065C208.288 34.7514 208.022 35.0827 207.842 35.5002C207.661 35.9071 207.585 36.3617 207.614 36.864C207.642 37.3663 207.769 37.8148 207.995 38.2094C208.22 38.5934 208.521 38.8927 208.898 39.1073C209.285 39.3106 209.708 39.3993 210.167 39.3734Z" fill="white"/>
<path d="M196.641 41.7289L195.971 29.8661L197.911 29.7566L198.201 34.9025L197.844 35.1157C197.94 34.735 198.129 34.3813 198.411 34.0544C198.703 33.7163 199.057 33.439 199.474 33.2225C199.89 32.9954 200.327 32.8688 200.787 32.8429C201.428 32.8067 201.97 32.9048 202.412 33.1371C202.864 33.3689 203.212 33.7353 203.455 34.2362C203.697 34.7371 203.841 35.3723 203.884 36.1418L204.175 41.3037L202.219 41.4141L201.936 36.3964C201.912 35.9583 201.833 35.6036 201.699 35.3323C201.566 35.0504 201.372 34.8523 201.119 34.7379C200.865 34.6128 200.563 34.5709 200.211 34.6122C199.923 34.6285 199.658 34.6917 199.418 34.8017C199.177 34.9011 198.97 35.0414 198.798 35.2226C198.637 35.3926 198.508 35.5928 198.414 35.8233C198.33 36.0424 198.295 36.2803 198.31 36.5368L198.597 41.6185L197.619 41.6737C197.437 41.684 197.261 41.6939 197.09 41.7036C196.929 41.7126 196.78 41.7211 196.641 41.7289Z" fill="white"/>
<path d="M185.813 42.5006C184.968 42.5483 184.204 42.4038 183.521 42.0671C182.836 41.7198 182.283 41.2257 181.861 40.5848C181.45 39.9433 181.22 39.2004 181.172 38.3561C181.125 37.5118 181.269 36.7478 181.606 36.0641C181.953 35.3797 182.448 34.8319 183.089 34.4204C183.73 33.9983 184.473 33.7634 185.317 33.7158C186.151 33.6687 186.91 33.8189 187.594 34.1662C188.278 34.5029 188.825 34.992 189.237 35.6334C189.659 36.2743 189.894 37.0169 189.941 37.8612C189.989 38.7055 189.839 39.4698 189.492 40.1541C189.155 40.8379 188.666 41.3908 188.025 41.8129C187.384 42.2244 186.646 42.4536 185.813 42.5006ZM185.714 40.7533C186.174 40.7274 186.579 40.5919 186.93 40.347C187.28 40.0914 187.545 39.7601 187.726 39.3532C187.917 38.935 187.993 38.4751 187.953 37.9734C187.935 37.4598 187.808 37.0113 187.572 36.628C187.346 36.2333 187.045 35.934 186.669 35.7301C186.293 35.5262 185.875 35.4372 185.416 35.4631C184.956 35.489 184.546 35.6301 184.185 35.8864C183.834 36.1313 183.569 36.4625 183.389 36.8801C183.208 37.287 183.132 37.7416 183.16 38.2439C183.189 38.7462 183.316 39.1947 183.542 39.5893C183.767 39.9733 184.068 40.2726 184.445 40.4872C184.831 40.6905 185.255 40.7792 185.714 40.7533Z" fill="white"/>
<path d="M172.188 43.1088L171.518 31.246L173.458 31.1365L173.748 36.2824L173.39 36.4956C173.487 36.1149 173.676 35.7611 173.958 35.4343C174.249 35.0962 174.604 34.8189 175.02 34.6024C175.436 34.3752 175.874 34.2487 176.334 34.2228C176.975 34.1866 177.517 34.2847 177.959 34.517C178.411 34.7488 178.759 35.1151 179.002 35.6161C179.244 36.117 179.387 36.7522 179.431 37.5217L179.722 42.6836L177.766 42.794L177.483 37.7763C177.458 37.3381 177.379 36.9834 177.246 36.7122C177.112 36.4303 176.919 36.2321 176.666 36.1178C176.412 35.9927 176.11 35.9508 175.758 35.9921C175.47 36.0084 175.205 36.0715 174.965 36.1816C174.724 36.281 174.517 36.4213 174.345 36.6025C174.183 36.7725 174.055 36.9727 173.961 37.2031C173.877 37.4223 173.842 37.6602 173.856 37.9166L174.143 42.9984L173.165 43.0536C172.984 43.0639 172.807 43.0738 172.636 43.0835C172.476 43.0925 172.326 43.1009 172.188 43.1088Z" fill="white"/>
<path d="M161.359 43.8807C160.515 43.9283 159.751 43.7838 159.067 43.4471C158.383 43.0998 157.83 42.6057 157.408 41.9648C156.996 41.3233 156.767 40.5804 156.719 39.7361C156.671 38.8918 156.816 38.1278 157.153 37.4441C157.5 36.7597 157.994 36.2119 158.636 35.8004C159.277 35.3783 160.019 35.1434 160.864 35.0958C161.697 35.0487 162.456 35.1989 163.141 35.5462C163.824 35.8829 164.372 36.372 164.783 37.0135C165.205 37.6544 165.44 38.3969 165.488 39.2412C165.536 40.0855 165.386 40.8498 165.038 41.5342C164.702 42.2179 164.213 42.7708 163.572 43.1929C162.931 43.6044 162.193 43.8336 161.359 43.8807ZM161.261 42.1333C161.72 42.1074 162.125 41.9719 162.476 41.727C162.826 41.4714 163.092 41.1401 163.272 40.7332C163.463 40.315 163.539 39.8551 163.5 39.3534C163.482 38.8398 163.355 38.3913 163.119 38.008C162.893 37.6133 162.592 37.314 162.216 37.1101C161.84 36.9062 161.422 36.8172 160.962 36.8431C160.503 36.869 160.093 37.0101 159.732 37.2664C159.381 37.5113 159.116 37.8425 158.935 38.2601C158.755 38.667 158.679 39.1216 158.707 39.6239C158.735 40.1262 158.862 40.5747 159.088 40.9693C159.314 41.3533 159.615 41.6526 159.991 41.8672C160.378 42.0705 160.801 42.1592 161.261 42.1333Z" fill="white"/>
<path d="M152.78 44.204L152.147 32.9824L154.215 32.8657L154.848 44.0873L152.78 44.204ZM145.566 44.6111L144.933 33.3895L147.001 33.2728L147.634 44.4944L145.566 44.6111ZM146.171 39.9293L146.062 38.0056L153.404 37.5913L153.513 39.515L146.171 39.9293Z" fill="white"/>
<path d="M35.2305 72.1996C35.1032 70.1265 36.6691 68.3433 38.728 68.2169L233.98 56.2288C236.039 56.1024 237.811 57.6806 237.938 59.7537L239.263 81.3384C239.391 83.4115 237.825 85.1947 235.766 85.3211L40.5142 97.3092C38.4553 97.4356 36.683 95.8574 36.5557 93.7842L35.2305 72.1996Z" fill="#CB181C"/>
<path d="M226.604 73.1123L226.197 71.5993C226.527 71.4892 226.819 71.3703 227.073 71.2424C227.327 71.1145 227.539 70.978 227.71 70.8328C227.881 70.6876 228.006 70.5303 228.085 70.3607C228.164 70.1838 228.197 69.9946 228.185 69.7933C228.173 69.592 228.117 69.4233 228.019 69.2871C227.928 69.143 227.798 69.035 227.629 68.9631C227.467 68.8832 227.274 68.8501 227.05 68.8639C226.819 68.8781 226.602 68.9326 226.398 69.0274C226.202 69.1218 226.015 69.2567 225.839 69.4322C225.67 69.6072 225.499 69.8123 225.327 70.0474L224.457 69.2364C224.662 68.9169 224.896 68.6406 225.159 68.4075C225.421 68.1669 225.712 67.9768 226.033 67.8374C226.361 67.69 226.707 67.6052 227.073 67.5827C227.572 67.5521 228.003 67.6229 228.365 67.7952C228.735 67.9597 229.026 68.1999 229.24 68.5161C229.454 68.8323 229.574 69.1991 229.6 69.6166C229.622 69.9745 229.553 70.3193 229.394 70.6508C229.234 70.975 229.002 71.2736 228.697 71.5468C228.391 71.8126 228.031 72.0442 227.617 72.2418L227.499 73.0573L226.604 73.1123ZM226.306 74.8369C226.29 74.576 226.355 74.3587 226.501 74.185C226.647 74.0039 226.843 73.9058 227.089 73.8907C227.358 73.8742 227.568 73.9399 227.719 74.0878C227.877 74.2278 227.965 74.4431 227.983 74.7339C227.999 74.9949 227.934 75.2159 227.788 75.397C227.649 75.5702 227.453 75.6646 227.199 75.6801C226.938 75.6962 226.728 75.6305 226.57 75.483C226.411 75.3356 226.323 75.1203 226.306 74.8369Z" fill="white"/>
<path d="M220.684 75.9567L220.322 70.0628L221.664 69.9804L221.802 71.858L221.597 71.444C221.66 71.1407 221.786 70.8636 221.972 70.6126C222.159 70.3617 222.379 70.1611 222.631 70.0109C222.891 69.8527 223.163 69.7649 223.446 69.7476C223.573 69.7398 223.693 69.7436 223.806 69.7591C223.927 69.7742 224.025 69.7943 224.101 69.8196L223.836 71.3402C223.743 71.3009 223.637 71.2738 223.516 71.2587C223.403 71.2358 223.286 71.228 223.167 71.2353C222.973 71.2472 222.793 71.2957 222.626 71.3808C222.466 71.458 222.326 71.5638 222.207 71.6983C222.096 71.8324 222.008 71.9875 221.944 72.1636C221.88 72.3322 221.853 72.5171 221.866 72.7184L222.059 75.8723L220.684 75.9567Z" fill="white"/>
<path d="M217.956 76.1241L217.724 72.3551C217.705 72.0345 217.581 71.7914 217.354 71.6257C217.134 71.4521 216.856 71.3756 216.521 71.3962C216.207 71.4155 215.928 71.4962 215.682 71.6385C215.436 71.7734 215.213 71.9817 215.013 72.2634L214.111 71.4656C214.439 71.0713 214.809 70.7641 215.222 70.5442C215.635 70.3242 216.088 70.1992 216.58 70.169C217.05 70.1401 217.457 70.19 217.802 70.3185C218.154 70.4465 218.432 70.654 218.637 70.9407C218.841 71.2201 218.956 71.5722 218.982 71.9972L219.231 76.0458L217.956 76.1241ZM216.285 76.3389C215.905 76.3623 215.561 76.3085 215.254 76.1777C214.946 76.0469 214.695 75.8565 214.5 75.6066C214.312 75.3487 214.207 75.0408 214.185 74.6829C214.166 74.3698 214.205 74.0942 214.303 73.8562C214.4 73.6107 214.552 73.4031 214.759 73.2332C214.973 73.0629 215.241 72.9304 215.565 72.8357C215.895 72.7331 216.277 72.6685 216.709 72.642L218.398 72.5383L218.358 73.5286L216.691 73.6309C216.49 73.6433 216.312 73.6729 216.158 73.7198C216.004 73.7667 215.873 73.8309 215.766 73.9123C215.658 73.9937 215.582 74.0882 215.536 74.1958C215.49 74.296 215.471 74.4169 215.48 74.5585C215.489 74.7076 215.534 74.8358 215.616 74.9431C215.697 75.0429 215.802 75.1187 215.933 75.1706C216.063 75.2225 216.214 75.2431 216.386 75.2326C216.632 75.2175 216.86 75.1623 217.072 75.067C217.29 74.9712 217.481 74.8435 217.643 74.6839C217.805 74.5243 217.929 74.3483 218.015 74.1559L218.341 74.8992C218.2 75.1698 218.021 75.4091 217.801 75.6172C217.59 75.8248 217.353 75.9927 217.091 76.121C216.837 76.2489 216.569 76.3215 216.285 76.3389ZM217.585 68.9846C217.316 69.0011 217.103 68.9431 216.946 68.8106C216.795 68.6776 216.712 68.4844 216.697 68.2309C216.682 67.9923 216.745 67.7939 216.885 67.6356C217.025 67.4773 217.225 67.3902 217.486 67.3742C217.754 67.3577 217.964 67.4159 218.114 67.5489C218.272 67.6739 218.358 67.8669 218.374 68.1279C218.388 68.359 218.326 68.5575 218.186 68.7232C218.046 68.8815 217.846 68.9686 217.585 68.9846ZM215.192 69.1316C214.923 69.1481 214.71 69.0901 214.552 68.9576C214.402 68.8246 214.319 68.6314 214.303 68.3779C214.289 68.1393 214.351 67.9408 214.491 67.7826C214.639 67.6238 214.839 67.5367 215.093 67.5211C215.361 67.5046 215.57 67.5629 215.721 67.6958C215.878 67.8209 215.965 68.0139 215.981 68.2749C215.995 68.506 215.932 68.7044 215.793 68.8701C215.653 69.0284 215.453 69.1156 215.192 69.1316Z" fill="white"/>
<path d="M207.774 76.7492L207.266 68.4731L208.619 68.3901L208.84 71.9801L208.591 72.1301C208.657 71.8641 208.788 71.6166 208.983 71.3875C209.186 71.1506 209.432 70.9558 209.722 70.8033C210.011 70.6434 210.316 70.5535 210.637 70.5338C211.084 70.5064 211.463 70.573 211.772 70.7336C212.089 70.8938 212.333 71.1482 212.504 71.4969C212.675 71.8457 212.777 72.2884 212.81 72.8253L213.031 76.4265L211.666 76.5102L211.451 73.0097C211.433 72.704 211.376 72.4567 211.282 72.2679C211.188 72.0717 211.052 71.934 210.875 71.8551C210.698 71.7687 210.487 71.7405 210.242 71.7705C210.04 71.7829 209.856 71.8279 209.689 71.9055C209.521 71.9757 209.377 72.0743 209.258 72.2014C209.145 72.3206 209.057 72.4607 208.992 72.6219C208.934 72.7751 208.91 72.9412 208.921 73.1201L209.139 76.6654L208.457 76.7073C208.33 76.7151 208.207 76.7227 208.088 76.73C207.976 76.7368 207.871 76.7433 207.774 76.7492Z" fill="white"/>
<path d="M200.714 77.295C200.095 77.333 199.539 77.2399 199.047 77.0157C198.561 76.7836 198.17 76.4521 197.874 76.0212C197.585 75.5824 197.423 75.0685 197.387 74.4795C197.358 74.0172 197.407 73.5914 197.533 73.202C197.659 72.8126 197.847 72.4717 198.099 72.1794C198.35 71.8796 198.653 71.6439 199.009 71.4723C199.373 71.2929 199.77 71.1899 200.203 71.1633C200.598 71.139 200.964 71.1914 201.301 71.3204C201.646 71.4489 201.95 71.6361 202.212 71.8819C202.473 72.1203 202.678 72.4146 202.827 72.7647C202.983 73.1069 203.07 73.487 203.088 73.9049L203.107 74.3977L198.343 74.6902L198.016 73.7561L201.897 73.5178L201.741 73.7182L201.725 73.461C201.689 73.2387 201.602 73.0457 201.465 72.882C201.327 72.7108 201.154 72.583 200.947 72.4984C200.747 72.4059 200.528 72.367 200.289 72.3817C199.924 72.4041 199.619 72.4939 199.374 72.6511C199.128 72.8009 198.947 73.0141 198.829 73.2908C198.719 73.567 198.676 73.9027 198.7 74.2978C198.724 74.6781 198.822 75.0051 198.996 75.2788C199.178 75.552 199.422 75.7578 199.73 75.896C200.038 76.0343 200.389 76.0913 200.785 76.067C201.061 76.0501 201.311 75.9898 201.537 75.8861C201.77 75.782 202.014 75.6062 202.268 75.3585L202.997 76.2568C202.807 76.4555 202.585 76.63 202.333 76.7803C202.087 76.9226 201.825 77.0397 201.546 77.1317C201.267 77.2236 200.99 77.2781 200.714 77.295Z" fill="white"/>
<path d="M193.489 77.6265L193.127 71.7326L194.469 71.6502L194.607 73.5278L194.402 73.1138C194.465 72.8105 194.591 72.5334 194.777 72.2824C194.964 72.0315 195.184 71.8309 195.436 71.6807C195.696 71.5225 195.968 71.4347 196.251 71.4174C196.378 71.4096 196.498 71.4134 196.611 71.4289C196.731 71.444 196.83 71.4641 196.906 71.4894L196.641 73.01C196.548 72.9707 196.442 72.9436 196.321 72.9285C196.208 72.9056 196.091 72.8978 195.972 72.9051C195.778 72.917 195.598 72.9655 195.431 73.0506C195.271 73.1278 195.131 73.2336 195.012 73.3681C194.901 73.5022 194.813 73.6573 194.749 73.8334C194.684 74.002 194.658 74.1869 194.671 74.3882L194.864 77.5421L193.489 77.6265Z" fill="white"/>
<path d="M190.761 77.7939L190.529 74.0249C190.51 73.7043 190.386 73.4612 190.159 73.2955C189.939 73.1219 189.661 73.0455 189.325 73.0661C189.012 73.0853 188.733 73.166 188.487 73.3084C188.241 73.4432 188.018 73.6515 187.818 73.9332L186.916 73.1354C187.244 72.7411 187.614 72.434 188.027 72.214C188.44 71.9941 188.893 71.869 189.385 71.8388C189.855 71.8099 190.262 71.8598 190.606 71.9883C190.959 72.1163 191.237 72.3238 191.442 72.6106C191.646 72.8899 191.761 73.2421 191.787 73.667L192.036 77.7156L190.761 77.7939ZM189.09 78.0087C188.71 78.0321 188.366 77.9783 188.059 77.8475C187.751 77.7167 187.5 77.5263 187.305 77.2764C187.117 77.0185 187.012 76.7106 186.99 76.3527C186.971 76.0396 187.01 75.764 187.108 75.526C187.205 75.2805 187.357 75.0729 187.563 74.903C187.778 74.7327 188.046 74.6002 188.37 74.5055C188.7 74.4029 189.082 74.3383 189.514 74.3118L191.203 74.2081L191.163 75.1984L189.496 75.3008C189.295 75.3131 189.117 75.3428 188.963 75.3896C188.809 75.4365 188.678 75.5007 188.571 75.5821C188.463 75.6635 188.387 75.7581 188.341 75.8656C188.295 75.9658 188.276 76.0867 188.285 76.2283C188.294 76.3774 188.339 76.5056 188.421 76.6129C188.502 76.7127 188.607 76.7885 188.738 76.8404C188.868 76.8923 189.019 76.9129 189.191 76.9024C189.437 76.8873 189.665 76.8321 189.876 76.7368C190.095 76.6411 190.285 76.5134 190.448 76.3537C190.61 76.1941 190.734 76.0181 190.82 75.8257L191.146 76.5691C191.005 76.8396 190.825 77.0789 190.606 77.287C190.394 77.4946 190.158 77.6625 189.896 77.7908C189.642 77.9187 189.373 77.9913 189.09 78.0087Z" fill="white"/>
<path d="M183.952 78.3243C183.438 78.3559 182.967 78.2987 182.539 78.1529C182.118 77.9991 181.767 77.7662 181.485 77.4542L182.322 76.6394C182.561 76.8717 182.822 77.0391 183.105 77.1414C183.388 77.2363 183.682 77.2744 183.988 77.2556C184.115 77.2478 184.226 77.2261 184.321 77.1903C184.423 77.154 184.51 77.1038 184.581 77.0396C184.652 76.9754 184.703 76.9011 184.736 76.8168C184.775 76.732 184.792 76.6412 184.786 76.5443C184.775 76.3653 184.699 76.2278 184.559 76.1316C184.481 76.0915 184.363 76.0464 184.202 75.9964C184.042 75.9389 183.833 75.8881 183.576 75.844C183.167 75.7643 182.82 75.6659 182.536 75.5486C182.259 75.4234 182.04 75.2797 181.881 75.1173C181.745 74.976 181.642 74.8214 181.572 74.6536C181.501 74.4783 181.459 74.2826 181.446 74.0663C181.425 73.7308 181.504 73.4266 181.682 73.1538C181.867 72.8805 182.119 72.6592 182.438 72.4899C182.757 72.3206 183.118 72.2237 183.52 72.1989C183.818 72.1806 184.108 72.2003 184.388 72.2579C184.676 72.3151 184.944 72.4072 185.191 72.5342C185.438 72.6537 185.653 72.8052 185.836 72.9885L185.127 73.874C184.985 73.748 184.825 73.6381 184.647 73.5442C184.476 73.4425 184.303 73.367 184.128 73.3179C183.953 73.2688 183.791 73.2488 183.641 73.258C183.5 73.2667 183.374 73.2894 183.264 73.3261C183.153 73.3553 183.063 73.3983 182.991 73.4551C182.92 73.5118 182.864 73.5826 182.825 73.6674C182.792 73.7442 182.779 73.8311 182.784 73.928C182.798 74.0245 182.826 74.1126 182.868 74.1923C182.917 74.2641 182.981 74.3238 183.059 74.3715C183.136 74.4191 183.259 74.4714 183.428 74.5284C183.596 74.5855 183.812 74.6358 184.077 74.6794C184.448 74.7539 184.76 74.8432 185.014 74.9474C185.267 75.0516 185.469 75.1777 185.621 75.3255C185.771 75.451 185.881 75.6014 185.951 75.7767C186.022 75.952 186.064 76.1515 186.078 76.3751C186.1 76.7256 186.018 77.0449 185.834 77.3331C185.656 77.6134 185.405 77.8422 185.079 78.0194C184.753 78.1965 184.377 78.2982 183.952 78.3243Z" fill="white"/>
<path d="M174.975 81.2328L174.462 72.8785L175.804 72.7961L175.908 74.1256L175.667 74.0394C175.697 73.8055 175.811 73.5815 176.007 73.3673C176.204 73.1532 176.447 72.9736 176.738 72.8286C177.035 72.683 177.348 72.6002 177.677 72.5801C178.198 72.548 178.669 72.6501 179.087 72.8864C179.513 73.1221 179.856 73.4641 180.116 73.9121C180.382 74.3523 180.534 74.8669 180.57 75.4559C180.606 76.0449 180.523 76.5777 180.32 77.0541C180.117 77.5231 179.818 77.9044 179.425 78.198C179.038 78.4837 178.588 78.6423 178.073 78.6739C177.73 78.695 177.394 78.6482 177.065 78.5337C176.744 78.4187 176.469 78.2598 176.239 78.0568C176.01 77.8539 175.858 77.6387 175.784 77.4112L176.109 77.2228L176.35 81.1484L174.975 81.2328ZM177.73 77.4713C178.043 77.4521 178.318 77.3567 178.554 77.185C178.791 77.0133 178.971 76.7852 179.096 76.5006C179.221 76.216 179.272 75.8948 179.25 75.5369C179.228 75.1791 179.138 74.8703 178.98 74.6105C178.829 74.3429 178.625 74.1384 178.37 73.9969C178.114 73.848 177.825 73.7834 177.505 73.803C177.177 73.8232 176.894 73.9191 176.658 74.0908C176.421 74.2625 176.241 74.4906 176.116 74.7751C175.991 75.0597 175.94 75.3809 175.962 75.7388C175.984 76.0967 176.074 76.4092 176.233 76.6764C176.391 76.9436 176.599 77.1479 176.854 77.2894C177.11 77.4308 177.402 77.4915 177.73 77.4713Z" fill="white"/>
<path d="M171.714 78.9634L171.353 73.0696L172.717 72.9858L173.079 78.8797L171.714 78.9634ZM171.947 71.7758C171.671 71.7927 171.45 71.7389 171.286 71.6143C171.128 71.4818 171.041 71.2888 171.026 71.0353C171.011 70.7967 171.078 70.6017 171.225 70.4505C171.373 70.2917 171.581 70.2041 171.849 70.1877C172.125 70.1707 172.342 70.2285 172.5 70.361C172.664 70.4856 172.755 70.6746 172.77 70.9281C172.784 71.1593 172.718 71.3542 172.57 71.5129C172.423 71.6717 172.215 71.7593 171.947 71.7758Z" fill="white"/>
<path d="M167.86 79.2L167.406 71.8075L168.77 71.7237L169.224 79.1163L167.86 79.2ZM166.413 74.6525L166.335 73.3775L170.149 73.1434L170.227 74.4183L166.413 74.6525Z" fill="white"/>
<path d="M161.206 79.6085L160.975 75.8395C160.955 75.5189 160.832 75.2758 160.605 75.1101C160.384 74.9365 160.107 74.86 159.771 74.8806C159.458 74.8999 159.179 74.9806 158.933 75.1229C158.687 75.2578 158.464 75.4661 158.264 75.7478L157.362 74.95C157.689 74.5557 158.06 74.2485 158.473 74.0286C158.886 73.8086 159.338 73.6836 159.83 73.6533C160.3 73.6245 160.707 73.6743 161.052 73.8029C161.404 73.9309 161.683 74.1383 161.887 74.4251C162.092 74.7045 162.207 75.0566 162.233 75.4816L162.481 79.5302L161.206 79.6085ZM159.536 79.8233C159.155 79.8467 158.812 79.7929 158.504 79.6621C158.197 79.5313 157.946 79.3409 157.751 79.0909C157.563 78.8331 157.458 78.5252 157.436 78.1673C157.417 77.8541 157.456 77.5786 157.553 77.3406C157.651 77.0951 157.803 76.8875 158.009 76.7176C158.223 76.5473 158.492 76.4148 158.815 76.3201C159.146 76.2175 159.527 76.1529 159.96 76.1264L161.649 76.0227L161.608 77.013L159.942 77.1153C159.741 77.1277 159.563 77.1573 159.409 77.2042C159.254 77.2511 159.124 77.3153 159.016 77.3967C158.909 77.4781 158.832 77.5726 158.787 77.6802C158.74 77.7803 158.722 77.9012 158.73 78.0429C158.74 78.192 158.785 78.3202 158.866 78.4275C158.947 78.5273 159.053 78.6031 159.183 78.655C159.314 78.7068 159.465 78.7275 159.636 78.717C159.882 78.7019 160.111 78.6467 160.322 78.5514C160.541 78.4556 160.731 78.3279 160.893 78.1683C161.056 78.0086 161.18 77.8327 161.265 77.6403L161.592 78.3836C161.451 78.6542 161.271 78.8935 161.052 79.1016C160.84 79.3091 160.603 79.4771 160.342 79.6054C160.088 79.7333 159.819 79.8059 159.536 79.8233Z" fill="white"/>
<path d="M154.957 79.9921L154.449 71.7161L155.813 71.6323L156.322 79.9084L154.957 79.9921Z" fill="white"/>
<path d="M151.954 80.1766L151.446 71.9005L152.81 71.8167L153.318 80.0928L151.954 80.1766Z" fill="white"/>
<path d="M149.214 80.3448L148.983 76.5758C148.963 76.2552 148.84 76.0121 148.613 75.8464C148.392 75.6728 148.115 75.5963 147.779 75.6169C147.466 75.6362 147.187 75.7169 146.941 75.8592C146.695 75.9941 146.472 76.2024 146.272 76.4841L145.37 75.6863C145.697 75.292 146.068 74.9848 146.481 74.7649C146.894 74.5449 147.346 74.4199 147.838 74.3897C148.308 74.3608 148.715 74.4107 149.06 74.5392C149.412 74.6672 149.691 74.8747 149.895 75.1615C150.1 75.4408 150.215 75.7929 150.241 76.2179L150.489 80.2665L149.214 80.3448ZM147.544 80.5596C147.163 80.583 146.82 80.5292 146.512 80.3984C146.205 80.2676 145.954 80.0772 145.759 79.8273C145.571 79.5694 145.466 79.2615 145.444 78.9036C145.425 78.5905 145.464 78.3149 145.561 78.0769C145.659 77.8314 145.811 77.6238 146.017 77.4539C146.231 77.2836 146.5 77.1511 146.823 77.0564C147.154 76.9538 147.535 76.8892 147.968 76.8627L149.657 76.759L149.616 77.7493L147.95 77.8516C147.749 77.864 147.571 77.8936 147.417 77.9405C147.262 77.9874 147.132 78.0516 147.024 78.133C146.917 78.2144 146.84 78.3089 146.795 78.4165C146.748 78.5167 146.73 78.6376 146.738 78.7792C146.748 78.9283 146.793 79.0565 146.874 79.1638C146.955 79.2636 147.061 79.3394 147.191 79.3913C147.322 79.4432 147.473 79.4638 147.644 79.4533C147.89 79.4382 148.119 79.383 148.33 79.2877C148.549 79.192 148.739 79.0643 148.901 78.9046C149.064 78.745 149.188 78.569 149.273 78.3766L149.6 79.1199C149.459 79.3905 149.279 79.6298 149.06 79.8379C148.848 80.0455 148.611 80.2134 148.35 80.3417C148.096 80.4696 147.827 80.5422 147.544 80.5596ZM148.843 73.2053C148.575 73.2218 148.362 73.1638 148.204 73.0313C148.054 72.8983 147.971 72.7051 147.955 72.4516C147.941 72.213 148.003 72.0146 148.143 71.8563C148.283 71.698 148.484 71.6109 148.745 71.5949C149.013 71.5784 149.222 71.6366 149.373 71.7696C149.53 71.8946 149.617 72.0877 149.633 72.3486C149.647 72.5797 149.584 72.7782 149.445 72.9439C149.305 73.1022 149.104 73.1893 148.843 73.2053ZM146.45 73.3523C146.182 73.3688 145.969 73.3108 145.811 73.1783C145.66 73.0453 145.577 72.8521 145.562 72.5986C145.547 72.36 145.61 72.1615 145.75 72.0033C145.897 71.8445 146.098 71.7574 146.351 71.7418C146.62 71.7253 146.829 71.7836 146.979 71.9165C147.137 72.0416 147.223 72.2346 147.239 72.4956C147.254 72.7267 147.191 72.9251 147.051 73.0909C146.912 73.2491 146.711 73.3363 146.45 73.3523Z" fill="white"/>
<path d="M139.033 80.97L138.671 75.0761L140.002 74.9944L140.098 76.2009L139.849 76.3509C139.915 76.0849 140.046 75.8374 140.242 75.6084C140.444 75.3714 140.69 75.1767 140.98 75.0242C141.27 74.8642 141.575 74.7744 141.896 74.7547C142.343 74.7272 142.721 74.7938 143.03 74.9544C143.347 75.1146 143.591 75.369 143.762 75.7178C143.933 76.0665 144.035 76.5093 144.068 77.0461L144.289 80.6473L142.925 80.7311L142.71 77.2305C142.691 76.9248 142.635 76.6776 142.541 76.4888C142.447 76.2925 142.311 76.1549 142.134 76.0759C141.956 75.9895 141.745 75.9614 141.5 75.9914C141.299 76.0037 141.114 76.0487 140.947 76.1264C140.779 76.1965 140.636 76.2952 140.516 76.4222C140.404 76.5414 140.315 76.6816 140.25 76.8427C140.192 76.996 140.169 77.162 140.18 77.341L140.397 80.8863L139.715 80.9282C139.588 80.9359 139.465 80.9435 139.346 80.9508C139.234 80.9577 139.13 80.9641 139.033 80.97Z" fill="white"/>
<path d="M135.591 81.2935C135.077 81.3251 134.605 81.268 134.177 81.1221C133.756 80.9683 133.405 80.7354 133.124 80.4234L133.961 79.6087C134.2 79.841 134.461 80.0083 134.744 80.1107C135.027 80.2056 135.321 80.2436 135.626 80.2249C135.753 80.2171 135.864 80.1953 135.959 80.1595C136.062 80.1233 136.148 80.0731 136.219 80.0088C136.29 79.9446 136.342 79.8703 136.374 79.786C136.414 79.7013 136.431 79.6104 136.425 79.5135C136.414 79.3346 136.338 79.197 136.197 79.1009C136.12 79.0607 136.001 79.0156 135.841 78.9656C135.68 78.9081 135.471 78.8573 135.214 78.8132C134.805 78.7336 134.459 78.6351 134.174 78.5178C133.897 78.3927 133.679 78.2489 133.519 78.0866C133.383 77.9452 133.28 77.7907 133.21 77.6228C133.14 77.4475 133.098 77.2518 133.084 77.0356C133.064 76.7001 133.142 76.3959 133.32 76.123C133.506 75.8497 133.758 75.6284 134.077 75.4591C134.395 75.2899 134.756 75.1929 135.159 75.1682C135.457 75.1499 135.746 75.1695 136.027 75.2271C136.315 75.2843 136.582 75.3764 136.83 75.5034C137.076 75.623 137.292 75.7744 137.475 75.9577L136.766 76.8432C136.623 76.7172 136.463 76.6073 136.285 76.5135C136.115 76.4117 135.941 76.3363 135.766 76.2872C135.591 76.238 135.429 76.2181 135.28 76.2272C135.138 76.2359 135.012 76.2586 134.902 76.2953C134.792 76.3245 134.701 76.3675 134.63 76.4243C134.558 76.4811 134.503 76.5518 134.463 76.6366C134.43 76.7134 134.417 76.8003 134.423 76.8973C134.436 76.9937 134.464 77.0818 134.507 77.1616C134.556 77.2334 134.619 77.2931 134.697 77.3407C134.775 77.3883 134.898 77.4406 135.066 77.4977C135.234 77.5547 135.451 77.605 135.715 77.6486C136.087 77.7231 136.399 77.8125 136.652 77.9167C136.906 78.0209 137.108 78.1469 137.259 78.2948C137.409 78.4203 137.519 78.5707 137.59 78.7459C137.661 78.9212 137.703 79.1207 137.717 79.3444C137.738 79.6948 137.657 80.0141 137.472 80.3024C137.295 80.5827 137.043 80.8114 136.717 80.9886C136.391 81.1658 136.016 81.2674 135.591 81.2935Z" fill="white"/>
<path d="M127.611 81.6712L127.38 77.9022C127.36 77.5816 127.237 77.3385 127.009 77.1728C126.789 76.9993 126.511 76.9228 126.176 76.9434C125.863 76.9626 125.583 77.0434 125.338 77.1857C125.091 77.3205 124.868 77.5288 124.669 77.8105L123.767 77.0127C124.094 76.6184 124.464 76.3113 124.877 76.0913C125.291 75.8714 125.743 75.7463 126.235 75.7161C126.705 75.6872 127.112 75.7371 127.457 75.8656C127.809 75.9937 128.087 76.2011 128.292 76.4879C128.496 76.7672 128.612 77.1194 128.638 77.5444L128.886 81.5929L127.611 81.6712ZM125.941 81.886C125.56 81.9094 125.216 81.8557 124.909 81.7249C124.602 81.5941 124.35 81.4037 124.156 81.1537C123.968 80.8958 123.863 80.5879 123.841 80.23C123.821 79.9169 123.861 79.6413 123.958 79.4033C124.055 79.1579 124.207 78.9502 124.414 78.7804C124.628 78.6101 124.897 78.4775 125.22 78.3828C125.551 78.2802 125.932 78.2156 126.365 78.1891L128.053 78.0854L128.013 79.0758L126.347 79.1781C126.145 79.1904 125.968 79.2201 125.813 79.267C125.659 79.3139 125.528 79.378 125.421 79.4594C125.314 79.5409 125.237 79.6354 125.191 79.743C125.145 79.8431 125.126 79.964 125.135 80.1057C125.144 80.2548 125.19 80.383 125.271 80.4902C125.352 80.59 125.458 80.6659 125.588 80.7177C125.719 80.7696 125.869 80.7903 126.041 80.7797C126.287 80.7646 126.516 80.7094 126.727 80.6141C126.945 80.5184 127.136 80.3907 127.298 80.231C127.461 80.0714 127.585 79.8954 127.67 79.703L127.996 80.4464C127.856 80.717 127.676 80.9563 127.457 81.1643C127.245 81.3719 127.008 81.5398 126.747 81.6682C126.493 81.796 126.224 81.8687 125.941 81.886Z" fill="white"/>
<path d="M119.789 82.1514L119.427 76.2575L120.769 76.1751L120.907 78.0527L120.702 77.6387C120.765 77.3354 120.891 77.0583 121.077 76.8073C121.264 76.5564 121.484 76.3558 121.736 76.2056C121.996 76.0474 122.268 75.9596 122.551 75.9423C122.678 75.9345 122.798 75.9383 122.911 75.9538C123.032 75.9689 123.13 75.989 123.206 76.0143L122.941 77.5349C122.848 77.4956 122.742 77.4685 122.621 77.4534C122.508 77.4305 122.391 77.4227 122.272 77.43C122.078 77.4419 121.898 77.4904 121.731 77.5755C121.571 77.6527 121.431 77.7585 121.312 77.893C121.201 78.0271 121.113 78.1822 121.049 78.3583C120.985 78.5269 120.958 78.7118 120.971 78.9131L121.164 82.067L119.789 82.1514Z" fill="white"/>
<path d="M115.258 85.0116C114.825 85.0382 114.385 84.9979 113.937 84.8907C113.496 84.783 113.135 84.633 112.854 84.4408L113.283 83.3816C113.517 83.5394 113.798 83.6569 114.124 83.7341C114.459 83.8184 114.79 83.8504 115.118 83.8303C115.513 83.806 115.837 83.7225 116.091 83.5797C116.351 83.4365 116.541 83.234 116.659 82.9723C116.779 82.718 116.827 82.4082 116.804 82.0428L116.738 80.958L116.933 81.0246C116.91 81.258 116.8 81.4855 116.604 81.7071C116.416 81.9282 116.172 82.1116 115.875 82.2571C115.577 82.4026 115.267 82.4852 114.947 82.5049C114.395 82.5388 113.895 82.4422 113.447 82.2153C112.999 81.9809 112.634 81.644 112.352 81.2048C112.078 80.7651 111.923 80.2507 111.887 79.6617C111.851 79.0727 111.942 78.5432 112.16 78.0733C112.378 77.5959 112.695 77.2135 113.111 76.926C113.527 76.631 114.004 76.4671 114.54 76.4341C114.757 76.4208 114.971 76.4339 115.183 76.4733C115.395 76.5126 115.593 76.5753 115.778 76.6612C115.963 76.7472 116.126 76.8457 116.268 76.9567C116.417 77.0673 116.54 77.187 116.638 77.3157C116.735 77.4444 116.799 77.5677 116.829 77.6856L116.555 77.8035L116.494 76.4376L117.825 76.3559L118.162 81.8472C118.191 82.3244 118.146 82.75 118.027 83.124C117.915 83.4976 117.733 83.8194 117.48 84.0894C117.227 84.3594 116.915 84.5731 116.543 84.7307C116.171 84.8882 115.743 84.9819 115.258 85.0116ZM115.076 81.3182C115.419 81.2972 115.716 81.2003 115.968 81.0277C116.219 80.8551 116.407 80.6266 116.532 80.342C116.656 80.0574 116.708 79.7362 116.686 79.3783C116.663 79.013 116.569 78.697 116.403 78.4302C116.244 78.1556 116.029 77.948 115.759 77.8075C115.495 77.6665 115.192 77.6065 114.849 77.6275C114.521 77.6477 114.232 77.7478 113.981 77.9278C113.737 78.1 113.549 78.3323 113.418 78.6248C113.293 78.9093 113.241 79.2306 113.263 79.5884C113.285 79.9463 113.376 80.2589 113.534 80.526C113.7 80.7927 113.915 80.9966 114.178 81.1376C114.449 81.2782 114.748 81.3384 115.076 81.3182Z" fill="white"/>
<path d="M109.721 82.7696L109.49 79.0007C109.47 78.6801 109.347 78.4369 109.12 78.2713C108.899 78.0977 108.622 78.0212 108.286 78.0418C107.973 78.061 107.693 78.1418 107.448 78.2841C107.202 78.419 106.979 78.6272 106.779 78.9089L105.877 78.1111C106.204 77.7168 106.575 77.4097 106.988 77.1897C107.401 76.9698 107.853 76.8447 108.345 76.8145C108.815 76.7857 109.222 76.8355 109.567 76.964C109.919 77.0921 110.198 77.2995 110.402 77.5863C110.606 77.8656 110.722 78.2178 110.748 78.6428L110.996 82.6913L109.721 82.7696ZM108.051 82.9845C107.67 83.0078 107.327 82.9541 107.019 82.8233C106.712 82.6925 106.461 82.5021 106.266 82.2521C106.078 81.9942 105.973 81.6863 105.951 81.3285C105.932 81.0153 105.971 80.7397 106.068 80.5017C106.166 80.2563 106.317 80.0486 106.524 79.8788C106.738 79.7085 107.007 79.576 107.33 79.4813C107.661 79.3786 108.042 79.3141 108.475 79.2875L110.164 79.1838L110.123 80.1742L108.457 80.2765C108.256 80.2889 108.078 80.3185 107.924 80.3654C107.769 80.4123 107.638 80.4764 107.531 80.5579C107.424 80.6393 107.347 80.7338 107.302 80.8414C107.255 80.9415 107.237 81.0624 107.245 81.2041C107.254 81.3532 107.3 81.4814 107.381 81.5886C107.462 81.6884 107.568 81.7643 107.698 81.8161C107.829 81.868 107.98 81.8887 108.151 81.8781C108.397 81.863 108.626 81.8078 108.837 81.7125C109.056 81.6168 109.246 81.4891 109.408 81.3295C109.571 81.1698 109.695 80.9938 109.78 80.8015L110.106 81.5448C109.966 81.8154 109.786 82.0547 109.567 82.2627C109.355 82.4703 109.118 82.6383 108.857 82.7666C108.603 82.8944 108.334 82.9671 108.051 82.9845ZM108.177 76.0839C107.961 76.0972 107.752 76.0539 107.552 75.9539C107.351 75.854 107.185 75.7145 107.054 75.5354C106.924 75.3563 106.852 75.1587 106.838 74.9425C106.825 74.7188 106.868 74.5103 106.968 74.3171C107.076 74.1233 107.224 73.9646 107.411 73.8409C107.598 73.7171 107.803 73.6484 108.027 73.6347C108.258 73.6205 108.474 73.6633 108.674 73.7633C108.875 73.8632 109.037 74.0029 109.16 74.1825C109.291 74.3615 109.363 74.5629 109.377 74.7866C109.39 75.0028 109.343 75.2078 109.235 75.4015C109.135 75.5948 108.991 75.7533 108.804 75.877C108.617 76.0008 108.408 76.0697 108.177 76.0839ZM108.132 75.3458C108.273 75.3371 108.39 75.285 108.481 75.1896C108.58 75.0863 108.625 74.9675 108.617 74.8333C108.608 74.6916 108.549 74.5793 108.439 74.4962C108.336 74.4052 108.214 74.3641 108.072 74.3728C107.93 74.3815 107.814 74.4373 107.723 74.5402C107.632 74.6356 107.59 74.7541 107.599 74.8958C107.607 75.03 107.663 75.1426 107.766 75.2336C107.868 75.3171 107.99 75.3545 108.132 75.3458Z" fill="white"/>
<path d="M99.5398 83.3947L99.178 77.5008L100.509 77.4191L100.605 78.6256L100.356 78.7756C100.422 78.5096 100.553 78.2621 100.749 78.0331C100.951 77.7961 101.197 77.6014 101.487 77.4488C101.777 77.2889 102.082 77.199 102.403 77.1794C102.85 77.1519 103.228 77.2185 103.537 77.3791C103.854 77.5393 104.098 77.7937 104.269 78.1425C104.44 78.4912 104.542 78.934 104.575 79.4708L104.796 83.072L103.432 83.1558L103.217 79.6552C103.198 79.3495 103.142 79.1023 103.048 78.9135C102.953 78.7172 102.818 78.5796 102.641 78.5006C102.463 78.4142 102.252 78.386 102.007 78.4161C101.806 78.4284 101.621 78.4734 101.454 78.551C101.286 78.6212 101.143 78.7198 101.023 78.8469C100.911 78.9661 100.822 79.1062 100.757 79.2674C100.699 79.4206 100.676 79.5867 100.687 79.7657L100.904 83.311L100.222 83.3528C100.095 83.3606 99.9723 83.3682 99.853 83.3755C99.7412 83.3824 99.6368 83.3888 99.5398 83.3947Z" fill="white"/>
<path d="M92.5651 83.823L92.1112 76.4304L93.4757 76.3466L93.9296 83.7392L92.5651 83.823ZM91.1184 79.2754L91.0401 78.0005L94.8538 77.7663L94.9321 79.0413L91.1184 79.2754Z" fill="white"/>
<path d="M88.1328 84.2072C87.514 84.2452 86.9582 84.1521 86.4654 83.9279C85.9797 83.6958 85.5889 83.3643 85.293 82.9334C85.0041 82.4947 84.8416 81.9808 84.8054 81.3917C84.777 80.9295 84.8257 80.5036 84.9515 80.1142C85.0773 79.7248 85.2659 79.3839 85.5174 79.0916C85.7684 78.7918 86.072 78.5561 86.4282 78.3846C86.7914 78.2051 87.1892 78.1021 87.6216 78.0755C88.0168 78.0513 88.383 78.1036 88.7202 78.2326C89.0649 78.3611 89.3682 78.5483 89.6303 78.7942C89.8919 79.0326 90.0971 79.3268 90.2458 79.6769C90.4015 80.0191 90.4885 80.3992 90.5066 80.8172L90.5257 81.3099L85.7614 81.6025L85.4346 80.6683L89.3154 80.43L89.1593 80.6305L89.1435 80.3732C89.1074 80.1509 89.0207 79.9579 88.8834 79.7942C88.7457 79.6231 88.5732 79.4952 88.3659 79.4106C88.1657 79.3182 87.9462 79.2792 87.7076 79.2939C87.3423 79.3163 87.0372 79.4062 86.7924 79.5634C86.5472 79.7132 86.3657 79.9264 86.248 80.203C86.1377 80.4792 86.0947 80.8149 86.1189 81.2101C86.1423 81.5903 86.2409 81.9173 86.4149 82.191C86.5963 82.4643 86.841 82.67 87.1488 82.8083C87.4567 82.9465 87.8082 83.0035 88.2034 82.9793C88.4792 82.9623 88.73 82.902 88.9556 82.7984C89.1887 82.6943 89.4324 82.5184 89.6866 82.2708L90.4153 83.169C90.2254 83.3678 90.0041 83.5423 89.7514 83.6925C89.5057 83.8348 89.2435 83.9519 88.9647 84.0439C88.686 84.1359 88.4087 84.1903 88.1328 84.2072Z" fill="white"/>
<path d="M80.5878 84.6706C80.0585 84.7031 79.577 84.6017 79.1435 84.3663C78.7169 84.1231 78.3666 83.7816 78.0927 83.3419C77.8257 82.8943 77.6739 82.3723 77.6373 81.7758C77.6011 81.1868 77.6881 80.6538 77.8983 80.1769C78.1085 79.7 78.4107 79.3185 78.8047 79.0323C79.2058 78.7383 79.6673 78.5752 80.1892 78.5432C80.4725 78.5258 80.7474 78.5538 81.0138 78.6273C81.2877 78.7002 81.5339 78.8086 81.7523 78.9524C81.9776 79.0882 82.1557 79.2457 82.2864 79.4248C82.4246 79.6034 82.5036 79.7931 82.5235 79.994L82.1571 80.0613L81.9182 76.1694L83.2938 76.0849L83.8019 84.361L82.471 84.4427L82.353 83.0691L82.6228 83.075C82.6264 83.2544 82.5737 83.4335 82.465 83.6123C82.3562 83.7911 82.2055 83.9576 82.0129 84.1116C81.8277 84.2651 81.6112 84.3944 81.3632 84.4995C81.1147 84.5971 80.8563 84.6541 80.5878 84.6706ZM80.7737 83.4916C81.0943 83.472 81.3728 83.3763 81.6092 83.2046C81.8452 83.0255 82.0216 82.7901 82.1384 82.4985C82.2622 82.1991 82.3127 81.8629 82.2898 81.4901C82.2669 81.1173 82.1759 80.7936 82.0168 80.519C81.8652 80.2439 81.6614 80.0319 81.4053 79.883C81.1492 79.7341 80.8608 79.6694 80.5402 79.6891C80.2121 79.7093 79.9301 79.8089 79.6941 79.9881C79.4656 80.1667 79.2892 80.4021 79.165 80.6941C79.0407 80.9861 78.99 81.3185 79.0129 81.6913C79.0358 82.0641 79.127 82.3916 79.2865 82.6736C79.4456 82.9483 79.6494 83.1603 79.8981 83.3097C80.1537 83.4511 80.4456 83.5118 80.7737 83.4916Z" fill="white"/>
<path d="M71.4803 85.2299C70.9658 85.2615 70.4946 85.2044 70.0665 85.0585C69.6455 84.9047 69.2944 84.6718 69.0133 84.3598L69.8501 83.5451C70.0889 83.7774 70.3499 83.9447 70.6331 84.0471C70.9158 84.142 71.21 84.18 71.5157 84.1613C71.6425 84.1535 71.7534 84.1317 71.8485 84.0959C71.951 84.0597 72.0378 84.0095 72.1087 83.9452C72.1795 83.881 72.2311 83.8067 72.2634 83.7224C72.3031 83.6377 72.3199 83.5468 72.314 83.4499C72.303 83.271 72.2272 83.1334 72.0866 83.0373C72.0093 82.9971 71.8905 82.952 71.7303 82.902C71.5696 82.8445 71.3606 82.7937 71.1035 82.7496C70.6945 82.67 70.3479 82.5715 70.0638 82.4542C69.7867 82.3291 69.5683 82.1853 69.4086 82.023C69.2727 81.8816 69.1697 81.7271 69.0995 81.5592C69.0289 81.384 68.9869 81.1882 68.9737 80.972C68.9531 80.6365 69.0317 80.3323 69.2095 80.0594C69.3948 79.7861 69.6469 79.5648 69.9658 79.3955C70.2847 79.2263 70.6455 79.1293 71.0481 79.1046C71.3463 79.0863 71.6357 79.1059 71.9161 79.1635C72.204 79.2207 72.4716 79.3128 72.7189 79.4398C72.9657 79.5594 73.1808 79.7108 73.3642 79.8941L72.6552 80.7796C72.5128 80.6536 72.3526 80.5437 72.1747 80.4499C72.0038 80.3481 71.8308 80.2727 71.6556 80.2236C71.4805 80.1744 71.3183 80.1545 71.1692 80.1636C71.0276 80.1723 70.9017 80.195 70.7917 80.2317C70.6813 80.2609 70.5903 80.3039 70.519 80.3607C70.4476 80.4175 70.3921 80.4882 70.3524 80.573C70.3197 80.6498 70.3063 80.7367 70.3123 80.8337C70.3257 80.9301 70.3536 81.0182 70.3959 81.098C70.4452 81.1698 70.5087 81.2295 70.5865 81.2771C70.6642 81.3247 70.7872 81.377 70.9554 81.4341C71.1235 81.4911 71.3399 81.5414 71.6045 81.585C71.9758 81.6595 72.2881 81.7489 72.5415 81.8531C72.7949 81.9573 72.9972 82.0833 73.1485 82.2312C73.2984 82.3567 73.4086 82.5071 73.4793 82.6823C73.5499 82.8576 73.5921 83.0571 73.6058 83.2808C73.6273 83.6312 73.5459 83.9505 73.3615 84.2388C73.1842 84.5191 72.9325 84.7478 72.6066 84.925C72.2807 85.1022 71.9053 85.2038 71.4803 85.2299Z" fill="white"/>
<path d="M62.69 85.6573L62.3281 79.7634L63.659 79.6817L63.7555 80.8882L63.5065 81.0382C63.5725 80.7722 63.7033 80.5247 63.8988 80.2956C64.1012 80.0587 64.3475 79.8639 64.6375 79.7114C64.927 79.5514 65.2321 79.4616 65.5527 79.4419C66 79.4145 66.3783 79.481 66.6876 79.6417C67.0042 79.8019 67.2481 80.0563 67.4192 80.405C67.5903 80.7538 67.6923 81.1965 67.7253 81.7334L67.9464 85.3346L66.582 85.4183L66.367 81.9178C66.3483 81.6121 66.2919 81.3648 66.198 81.176C66.1036 80.9797 65.968 80.8421 65.791 80.7632C65.6135 80.6768 65.4023 80.6486 65.1571 80.6786C64.9558 80.691 64.7715 80.736 64.6041 80.8136C64.4363 80.8838 64.2927 80.9824 64.1732 81.1095C64.0608 81.2287 63.9721 81.3688 63.9072 81.53C63.8492 81.6832 63.8258 81.8493 63.8367 82.0282L64.0544 85.5735L63.3722 85.6154C63.2455 85.6232 63.1224 85.6307 63.0031 85.6381C62.8913 85.6449 62.7869 85.6514 62.69 85.6573Z" fill="white"/>
<path d="M55.8748 86.0758L55.5129 80.1819L56.8438 80.1001L56.9403 81.3066L56.6913 81.4566C56.7573 81.1906 56.8881 80.9431 57.0836 80.7141C57.2861 80.4771 57.5323 80.2824 57.8223 80.1299C58.1118 79.9699 58.4169 79.8801 58.7375 79.8604C59.1849 79.8329 59.5632 79.8995 59.8724 80.0601C60.1891 80.2203 60.4329 80.4748 60.604 80.8235C60.7751 81.1722 60.8771 81.615 60.9101 82.1518L61.1312 85.753L59.7668 85.8368L59.5519 82.3362C59.5331 82.0306 59.4767 81.7833 59.3828 81.5945C59.2885 81.3982 59.1528 81.2606 58.9758 81.1817C58.7984 81.0953 58.5871 81.0671 58.3419 81.0971C58.1406 81.1094 57.9563 81.1544 57.7889 81.2321C57.6211 81.3023 57.4775 81.4009 57.3581 81.528C57.2456 81.6471 57.1569 81.7873 57.092 81.9484C57.0341 82.1017 57.0106 82.2678 57.0216 82.4467L57.2392 85.992L56.557 86.0339C56.4303 86.0417 56.3072 86.0492 56.1879 86.0565C56.0761 86.0634 55.9717 86.0698 55.8748 86.0758Z" fill="white"/>
<path d="M52.7657 86.2666L52.4038 80.3727L53.7682 80.2889L54.1301 86.1828L52.7657 86.2666ZM52.9979 79.0789C52.7221 79.0958 52.5017 79.042 52.3369 78.9174C52.1791 78.7849 52.0924 78.5919 52.0768 78.3384C52.0622 78.0998 52.1288 77.9048 52.2767 77.7536C52.4241 77.5948 52.632 77.5072 52.9004 77.4908C53.1763 77.4738 53.3931 77.5316 53.5509 77.6641C53.7158 77.7887 53.8059 77.9777 53.8215 78.2312C53.8357 78.4624 53.7691 78.6573 53.6217 78.816C53.4743 78.9748 53.2663 79.0624 52.9979 79.0789Z" fill="white"/>
<path d="M46.062 86.6782L45.5813 78.8495L47.024 78.7609L47.5047 86.5896L46.062 86.6782ZM46.5241 83.4167L46.4437 82.1082L50.4923 81.8596L50.5726 83.1682L46.5241 83.4167ZM46.3235 80.151L46.2411 78.809L50.7706 78.5309L50.853 79.8729L46.3235 80.151Z" fill="white"/>
<path d="M46.4634 72.4164C46.4634 72.4164 44.727 69.7684 41.997 69.016C40.429 68.5589 38.7542 68.629 37.2298 69.2153L36.7597 68.2567L36.252 67.2209C41.4663 64.3158 40.1374 57.1804 40.1374 57.1804C40.1374 57.1804 43.8993 57.385 46.4223 55.9229C48.1273 54.9958 49.5447 53.6178 50.5195 51.9395C51.3651 53.4961 52.6904 54.7383 54.2984 55.4814C57.3636 56.943 61.6616 55.9515 61.6616 55.9515C61.5125 56.1322 58.6971 58.8075 57.7123 61.585C57.1087 63.644 56.9937 65.8154 57.3764 67.9267C55.3315 67.3938 53.1679 67.5495 51.2203 68.3699C49.332 69.316 47.7001 70.7042 46.4634 72.4164Z" fill="#07966E"/>
<path d="M36.7432 68.2431L36.2355 67.2073C41.4498 64.3022 40.1209 57.1668 40.1209 57.1668C40.1209 57.1668 43.8828 57.3714 46.4058 55.9093C48.1109 54.9822 49.5282 53.6042 50.503 51.9259C51.3505 53.4902 52.6821 54.7376 54.2983 55.4814C57.3635 56.943 61.6615 55.9514 61.6615 55.9514L36.7432 68.2431Z" fill="#09BC8A"/>
<path d="M40.9242 56.7065C40.9242 56.7065 38.7106 58.9763 38.5624 61.7997C38.4455 63.4358 38.8709 65.0648 39.7728 66.4348L38.9388 67.0998L38.034 67.8168C34.0762 63.354 27.408 66.1916 27.408 66.1916C27.408 66.1916 26.7946 62.4726 24.8288 60.3257C23.5583 58.8589 21.9079 57.7709 20.0591 57.1814C21.4029 56.0087 22.3298 54.4315 22.7003 52.6868C23.4735 49.3849 21.5789 45.4004 21.5789 45.4004C21.7651 45.554 25.0153 47.6839 27.9353 48.0498C30.0744 48.1949 32.218 47.8395 34.1958 47.0116C34.1119 49.1161 34.7178 51.1904 35.9214 52.9187C37.2605 54.5649 38.9765 55.8642 40.9242 56.7065Z" fill="#07966E"/>
<path d="M38.9388 67.0998L38.034 67.8168C34.0762 63.354 27.408 66.1916 27.408 66.1916C27.408 66.1916 26.7946 62.4726 24.8288 60.3257C23.5583 58.8589 21.9079 57.7709 20.0591 57.1814C21.4029 56.0087 22.3298 54.4315 22.7003 52.6868C23.4735 49.3849 21.5789 45.4004 21.5789 45.4004L38.9388 67.0998Z" fill="#09BC8A"/>
<path d="M26.2701 66.2652C26.2701 66.2652 28.9744 67.9077 31.7666 67.4133C33.3845 67.1592 34.8733 66.3784 36.0023 65.1921L36.8237 65.8699L37.7164 66.6066C34.2589 71.4768 38.5226 77.3427 38.5226 77.3427C38.5226 77.3427 35.044 78.7804 33.3928 81.1829C32.2552 82.7513 31.569 84.6015 31.4085 86.5324C29.9632 85.4868 28.2165 84.9405 26.4329 84.9763C23.0618 84.9562 19.5778 87.7057 19.5778 87.7057C19.6621 87.4807 21.0292 83.8496 20.7233 80.9183C20.3813 78.7994 19.5499 76.7894 18.2951 75.0481C20.3635 74.6567 22.2464 73.5976 23.6551 72.0332C24.9862 70.3538 25.8842 68.3731 26.2701 66.2652Z" fill="#07966E"/>
<path d="M36.8373 65.8535L37.73 66.5901C34.2725 71.4604 38.5362 77.3263 38.5362 77.3263C38.5362 77.3263 35.0576 78.7639 33.4064 81.1664C32.2688 82.7349 31.5826 84.585 31.4221 86.516C29.9768 85.4703 28.2301 84.9241 26.4465 84.9599C23.0754 84.9397 19.5914 87.6892 19.5914 87.6892L36.8373 65.8535Z" fill="#09BC8A"/>
<path d="M40.9295 60.2365C40.5244 60.3331 40.1365 60.4911 39.779 60.7048C39.4964 60.8855 39.2309 61.0916 38.9856 61.3204C38.2816 62.0208 37.8549 62.9522 37.7843 63.9427C37.7137 64.9332 38.004 65.9158 38.6016 66.7089C39.1991 67.5019 40.0636 68.0519 41.0351 68.2572C42.0067 68.4625 43.0197 68.3092 43.887 67.8256C44.7543 67.342 45.4172 66.5608 45.7533 65.6264C46.0894 64.692 46.0759 63.6675 45.7153 62.7423C45.3548 61.8171 44.6715 61.0536 43.7918 60.593C42.9121 60.1324 41.8953 60.0058 40.9295 60.2365Z" fill="#CB181C"/>
<path opacity="0.15" d="M44.1398 66.3748C44.7511 65.701 44.1093 64.9504 42.7916 65.0413C41.4738 65.1322 40.2638 65.8734 41.0513 66.8824C39.1163 66.5835 37.6249 63.6498 38.6582 61.6948C38.2407 62.2253 37.9604 62.8505 37.8418 63.515C37.7233 64.1796 37.7702 64.8632 37.9785 65.5053C38.1868 66.1475 38.55 66.7284 39.036 67.1969C39.5221 67.6654 40.116 68.007 40.7654 68.1915C41.4148 68.376 42.0996 68.3977 42.7593 68.2548C43.4191 68.1119 44.0335 67.8086 44.5483 67.3719C45.0631 66.9352 45.4625 66.3785 45.7111 65.7509C45.9596 65.1232 46.0499 64.444 45.9737 63.7733C45.9563 64.3388 45.7732 64.8868 45.4472 65.3493C45.1212 65.8118 44.6666 66.1683 44.1398 66.3748Z" fill="black"/>
<path opacity="0.2" d="M45.1202 63.0227C45.1204 63.1792 45.0732 63.3321 44.9847 63.4613C44.8962 63.5904 44.7706 63.6897 44.6246 63.746C44.1798 63.8945 43.7598 63.511 43.3903 63.2337C42.395 62.5404 41.1878 62.2187 39.9795 62.3247C39.8302 62.3431 39.6789 62.3337 39.533 62.2968C39.4603 62.2792 39.3942 62.2411 39.3426 62.1871C39.2909 62.133 39.2558 62.0653 39.2416 61.9918C39.235 61.8366 39.2828 61.684 39.3767 61.5603C39.605 61.3076 39.8824 61.1043 40.1921 60.9627C41.0037 60.6218 41.9029 60.5481 42.7592 60.7522C43.6064 60.9325 44.3505 61.4344 44.8351 62.1522C45.015 62.4074 45.1143 62.7106 45.1202 63.0227Z" fill="white"/>
<path opacity="0.2" d="M43.7172 62.9605C43.8212 63.1017 43.9585 63.215 44.1169 63.2904C44.2127 63.3371 44.319 63.3582 44.4254 63.3516C45.5204 63.2518 44.1434 61.0384 43.5828 61.8739C43.4925 62.0213 43.4591 62.1967 43.4888 62.367C43.5095 62.582 43.5884 62.7871 43.7172 62.9605Z" fill="white"/>
<path d="M32.3118 59.0444C31.9341 59.1364 31.5726 59.2849 31.2394 59.485C30.9712 59.6571 30.7181 59.8517 30.4831 60.0668C29.8195 60.7278 29.4176 61.6066 29.3518 62.5408C29.2859 63.4751 29.5605 64.4016 30.1248 65.1491C30.689 65.8966 31.5048 66.4146 32.4214 66.6072C33.3379 66.7999 34.2932 66.6543 35.1107 66.1972C35.9282 65.7402 36.5526 65.0026 36.8685 64.1209C37.1843 63.2392 37.1703 62.273 36.829 61.4008C36.4877 60.5286 35.8422 59.8095 35.0119 59.3763C34.1815 58.9432 33.2224 58.8252 32.3118 59.0444Z" fill="#CB181C"/>
<path opacity="0.15" d="M35.3469 64.8262C35.8892 64.169 35.314 63.4827 34.0662 63.5668C32.8185 63.651 31.6864 64.3647 32.4319 65.302C30.6096 65.0226 29.2045 62.252 30.1838 60.4182C29.785 60.9152 29.5151 61.5029 29.398 62.1293C29.281 62.7557 29.3204 63.4012 29.5128 64.0087C29.7052 64.6162 30.0447 65.1667 30.501 65.6114C30.9574 66.0562 31.5165 66.3813 32.1287 66.558C32.7409 66.7347 33.3873 66.7575 34.0104 66.6243C34.6335 66.4912 35.2142 66.2062 35.7007 65.7947C36.1872 65.3832 36.5646 64.8579 36.7993 64.2655C37.034 63.6731 37.1188 63.0319 37.0461 62.3989C37.027 62.9242 36.8565 63.4328 36.555 63.8635C36.2535 64.2941 35.834 64.6284 35.3469 64.8262Z" fill="black"/>
<path opacity="0.2" d="M36.2873 61.6897C36.2849 61.8368 36.239 61.9799 36.1555 62.101C36.0719 62.2221 35.9545 62.3157 35.8178 62.3702C35.3966 62.5013 35.0049 62.1505 34.6564 61.8812C33.7087 61.2372 32.5655 60.9452 31.4251 61.0558C31.2843 61.0684 31.1424 61.0599 31.0041 61.0306C30.9358 61.0121 30.874 60.9751 30.8254 60.9237C30.7769 60.8723 30.7435 60.8084 30.729 60.7392C30.7227 60.5917 30.7676 60.4467 30.8561 60.3286C31.0716 60.0931 31.3335 59.9049 31.6253 59.7758C32.3893 59.4478 33.2393 59.377 34.0471 59.5742C34.8444 59.7416 35.5448 60.2138 35.9989 60.8902C36.1691 61.1239 36.2691 61.4012 36.2873 61.6897Z" fill="white"/>
<path opacity="0.2" d="M34.9479 61.606C35.0498 61.736 35.1787 61.8424 35.3257 61.9178C35.4174 61.9602 35.5179 61.98 35.6187 61.9755C36.6183 61.8798 35.3446 59.7977 34.8193 60.5794C34.7352 60.7178 34.7043 60.8821 34.7324 61.0416C34.7523 61.2457 34.8267 61.4406 34.9479 61.606Z" fill="white"/>
<path d="M35.4434 66.7285C35.0821 66.8121 34.7364 66.9524 34.419 67.1443C34.1655 67.3033 33.928 67.4865 33.7099 67.6914C33.0833 68.3193 32.7053 69.1529 32.6458 70.038C32.5863 70.9231 32.8493 71.7998 33.3862 72.506C33.9231 73.2121 34.6976 73.7 35.5664 73.8793C36.4352 74.0585 37.3395 73.9171 38.1121 73.4812C38.8847 73.0453 39.4733 72.3444 39.7691 71.508C40.0648 70.6717 40.0477 69.7566 39.7209 68.9319C39.3941 68.1072 38.7796 67.4287 37.9913 67.022C37.2029 66.6153 36.2939 66.5078 35.4325 66.7194L35.4434 66.7285Z" fill="#CB181C"/>
<path opacity="0.15" d="M38.3134 72.2082C38.8285 71.5839 38.2818 70.9301 37.0994 71.0131C35.9171 71.096 34.8457 71.7585 35.5573 72.6587C33.8269 72.3907 32.4916 69.7698 33.4141 68.0272C33.0415 68.5009 32.7912 69.0591 32.6855 69.6525C32.5797 70.2459 32.6217 70.8562 32.8077 71.4295C32.9937 72.0028 33.3181 72.5215 33.7521 72.9398C34.1861 73.358 34.7164 73.663 35.2962 73.8277C35.876 73.9924 36.4874 74.0118 37.0765 73.8842C37.6655 73.7566 38.2141 73.4859 38.6738 73.096C39.1335 72.7062 39.49 72.2091 39.712 71.6487C39.934 71.0884 40.0147 70.4819 39.9467 69.883C39.9305 70.3876 39.7673 70.8764 39.4771 71.2894C39.187 71.7025 38.7825 72.0218 38.3134 72.2082Z" fill="black"/>
<path opacity="0.2" d="M39.1817 69.215C39.1797 69.3544 39.1367 69.4902 39.058 69.6054C38.9794 69.7205 38.8685 69.81 38.7393 69.8625C38.3427 69.9863 37.9838 69.6625 37.6407 69.3978C36.7539 68.7913 35.6845 68.5106 34.6142 68.6033C34.48 68.6198 34.3439 68.6105 34.2131 68.5761C34.1485 68.562 34.0895 68.5291 34.0436 68.4814C33.9977 68.4337 33.967 68.3734 33.9555 68.3083C33.945 68.1705 33.9858 68.0336 34.07 67.9241C34.2763 67.6989 34.5242 67.5159 34.8001 67.3851C35.5277 67.0848 36.3312 67.0202 37.0974 67.2004C37.8505 67.3607 38.5117 67.8074 38.9416 68.4461C39.0977 68.6722 39.1814 68.9403 39.1817 69.215Z" fill="white"/>
<path opacity="0.2" d="M37.9306 69.1583C38.0225 69.2847 38.145 69.3858 38.2866 69.452C38.3704 69.4965 38.4649 69.5171 38.5596 69.5116C39.5591 69.4159 38.297 67.4538 37.8078 68.1916C37.7306 68.3232 37.7008 68.4774 37.7235 68.6283C37.7425 68.8207 37.8142 69.004 37.9306 69.1583Z" fill="white"/>
<defs>
<clipPath id="clip0_46_1963">
<rect width="119" height="100" fill="white" transform="translate(244)"/>
</clipPath>
</defs>
</svg>
