<svg width="119" height="100" viewBox="0 0 119 100" fill="none" xmlns="http://www.w3.org/2000/svg">
<g clip-path="url(#clip0_46_1156)">
<path d="M105.505 62.3752C105.505 62.3752 108.361 47.8087 106.881 36.3509C105.83 27.9492 106.618 18.8018 97.1452 13.0467C78.84 1.91443 69.325 -0.0494605 59.096 1.16878C48.8669 2.38703 42.7441 15.8718 42.7441 15.8718L91.537 43.4818L93.8265 39.5225L100.254 61.4615L105.505 62.3752Z" fill="#CB181C"/>
<path d="M103.719 75.2718C103.95 74.7362 104.171 74.2216 104.402 73.644L103.992 73.581C103.083 74.1116 102.044 74.377 100.991 74.3473C99.9388 74.3176 98.9157 73.994 98.0378 73.4129C97.6012 73.1722 97.2485 72.8038 97.027 72.3571C96.8056 71.9104 96.7259 71.4067 96.7985 70.9134C96.9605 70.4265 97.3076 70.0228 97.7647 69.7897C96.2315 67.775 95.5179 65.2546 95.7673 62.7352C96.0167 60.2158 97.2106 57.8842 99.1091 56.2092C101.008 54.5342 103.47 53.6401 106.001 53.7066C108.531 53.7731 110.943 54.7952 112.751 56.5675C114.769 57.2841 116.594 58.4556 118.086 59.9912C118.231 60.1073 118.345 60.257 118.418 60.4273C118.491 60.5976 118.522 60.7832 118.506 60.9679C118.443 61.1349 118.323 61.2746 118.168 61.3628C118.013 61.451 117.832 61.4822 117.656 61.451C117.299 61.3857 116.964 61.2343 116.679 61.0099C117.754 62.1565 118.475 63.5887 118.756 65.1347C119.037 66.6808 118.867 68.2751 118.265 69.7267C118.16 69.9787 117.981 70.2518 117.708 70.2623C117.435 70.2728 117.309 70.0733 117.162 69.9052L115.062 67.3742C115.062 67.4477 115.009 67.5317 114.978 67.6053C114.11 69.6716 112.571 71.3848 110.609 72.4678C109.215 74.4675 107.157 75.9077 104.801 76.5321C104.381 76.6161 103.845 76.6266 103.635 76.259C103.571 76.0993 103.546 75.9269 103.56 75.7554C103.575 75.584 103.629 75.4184 103.719 75.2718Z" fill="#F2F5F7"/>
<path d="M24.229 35.143C23.3153 38.4512 23.4939 42.0639 21.9816 45.141C20.6268 47.9031 17.9382 50.1191 17.6547 53.1857C17.5076 54.698 18.0012 56.2628 17.6547 57.7436C16.972 60.3691 13.9894 61.5244 11.889 63.2467C10.1318 64.7577 8.91541 66.8007 8.42451 69.0656C7.93362 71.3306 8.195 73.6938 9.16897 75.7967C7.18095 76.7073 5.42833 78.0617 4.046 79.756C2.66366 81.4502 1.68846 83.439 1.19544 85.5693C0.70243 87.6996 0.70475 89.9146 1.20222 92.0439C1.69969 94.1731 2.67906 96.1599 4.06494 97.8512C2.53163 101.086 0.914296 104.51 1.15584 108.091C1.39739 111.672 4.01242 115.442 7.60415 115.442C6.03993 117.118 5.11806 119.293 5.00124 121.582C4.88443 123.872 5.58017 126.129 6.96568 127.955C8.35119 129.782 10.3374 131.06 12.5737 131.564C14.81 132.069 17.1526 131.767 19.188 130.712C19.8195 132.154 20.796 133.419 22.0315 134.395C23.2669 135.37 24.7233 136.027 26.2724 136.307C27.8215 136.587 29.4158 136.482 30.9146 136.001C32.4135 135.52 33.7711 134.677 34.8677 133.548L36.9681 26.1112C33.6914 25.3235 25.1532 31.8033 24.229 35.143Z" fill="#EDEDED"/>
<path d="M63.2968 18.6023L61.9105 18.4238C55.1511 17.522 48.2999 19.1972 42.7191 23.1162C37.1384 27.0352 33.2369 32.9109 31.7904 39.5751C29.0074 52.4402 26.0983 66.681 25.2476 73.6754C23.4938 88.1369 37.6401 92.3167 37.6401 92.3167C37.6401 92.4952 34.6155 103.155 33.6283 107.408L68.5479 107.419L80.7619 50.6443C84.049 35.7628 78.1783 21.4904 63.2968 18.6023Z" fill="#FFBF9D"/>
<path d="M34.521 29.0519C33.8714 29.69 33.4834 30.5475 33.4329 31.4566C33.3824 32.3657 33.673 33.2609 34.2479 33.9669C34.8589 34.6452 35.6436 35.1435 36.5173 35.4082C37.3909 35.6729 38.3203 35.6938 39.2049 35.4687C40.9748 34.9938 42.5327 33.9355 43.6263 32.4651C44.3797 33.5815 45.4107 34.4826 46.6178 35.0798C47.8249 35.677 49.1667 35.9498 50.5112 35.8714C51.8557 35.793 53.1567 35.3661 54.2862 34.6326C55.4158 33.8991 56.335 32.8843 56.9535 31.688C57.4059 32.7584 58.0685 33.7271 58.9021 34.5368C59.7357 35.3465 60.7233 35.9807 61.8064 36.4018C62.8895 36.8229 64.0461 37.0224 65.2077 36.9884C66.3693 36.9544 67.5122 36.6876 68.5689 36.2039C68.2857 38.2356 68.7905 40.2987 69.9797 41.9702C71.1689 43.6417 72.9524 44.795 74.9646 45.1937C74.1915 46.6274 73.5989 48.1513 73.2003 49.7306C72.8078 51.3314 73.0288 53.0212 73.8199 54.4671C74.4298 55.2107 74.9416 56.0296 75.3427 56.9036C75.6893 58.1008 75.1642 59.3716 75.3427 60.6003C75.4081 61.1784 75.6202 61.7302 75.9588 62.2032C76.2974 62.6763 76.7513 63.055 77.2774 63.3033C77.8035 63.5516 78.3843 63.6613 78.9648 63.622C79.5452 63.5828 80.106 63.3958 80.5938 63.0788C82.0011 62.1651 82.5262 60.4008 82.9463 58.773C84.2093 54.4049 85.1328 49.9457 85.7083 45.4353C86.2669 40.8987 85.7856 36.2945 84.3011 31.9715C81.6545 24.7986 75.2902 19.2745 68.0018 16.9325C60.5951 14.7324 52.6595 15.1251 45.5062 18.0457C42.8191 19.0132 40.3287 20.4576 38.1547 22.3096C35.9642 24.1705 34.4352 26.6907 33.7963 29.493" fill="#EDEDED"/>
<path d="M37.5877 92.3166C44.2597 93.1866 51.0413 92.1299 57.1322 89.271C57.1322 89.271 51.335 97.5467 37.0941 94.312L37.5877 92.3166Z" fill="#FF9A6C"/>
<path d="M35.9283 53.6479C35.8577 54.1835 35.9962 54.7258 36.315 55.1619C36.6338 55.5981 37.1084 55.8946 37.6402 55.9899C37.8998 56.0479 38.1685 56.0529 38.4301 56.0045C38.6918 55.956 38.9409 55.8552 39.1626 55.7081C39.3843 55.5609 39.574 55.3705 39.7202 55.1482C39.8664 54.926 39.9663 54.6764 40.0136 54.4146C40.0845 53.8805 39.9475 53.3396 39.6308 52.9037C39.3142 52.4678 38.8421 52.1703 38.3123 52.0726C38.0522 52.0175 37.7837 52.0147 37.5225 52.0642C37.2612 52.1138 37.0125 52.2148 36.7907 52.3614C36.5688 52.508 36.3783 52.6972 36.2303 52.9181C36.0823 53.139 35.9796 53.387 35.9283 53.6479Z" fill="#263238"/>
<path d="M33.8909 47.063C34.1114 47.3675 35.8233 46.4118 38.0917 46.7164C40.3602 47.021 41.7885 48.3442 42.0615 48.1132C42.3346 47.8821 41.9985 47.4831 41.3579 46.8739C40.4836 46.0755 39.3825 45.5689 38.2073 45.4246C37.0508 45.2669 35.8741 45.4801 34.8466 46.0338C34.0904 46.5064 33.7964 46.9264 33.8909 47.063Z" fill="#263238"/>
<path d="M56.9221 56.8406C56.8486 57.3778 56.9857 57.9227 57.3048 58.3612C57.6238 58.7996 58.1001 59.0977 58.634 59.193C58.8935 59.2496 59.1618 59.2534 59.4229 59.2043C59.684 59.1552 59.9325 59.0543 60.1539 58.9074C60.3752 58.7605 60.5648 58.5706 60.7114 58.3491C60.858 58.1276 60.9587 57.8789 61.0074 57.6177C61.0812 57.082 60.9456 56.5384 60.6286 56.1002C60.3117 55.662 59.838 55.3629 59.3061 55.2652C59.046 55.2101 58.7775 55.2073 58.5163 55.2569C58.2551 55.3064 58.0063 55.4075 57.7845 55.554C57.5626 55.7006 57.3722 55.8899 57.2241 56.1107C57.0761 56.3316 56.9734 56.5797 56.9221 56.8406Z" fill="#263238"/>
<path d="M55.6618 50.3922C55.8823 50.6968 57.6047 49.7516 59.8626 50.0456C62.1206 50.3397 63.5594 51.684 63.8324 51.4424C64.1055 51.2009 63.7694 50.8123 63.1288 50.2032C62.2545 49.4047 61.1534 48.8982 59.9782 48.7539C58.8217 48.5961 57.645 48.8094 56.6175 49.363C55.8508 49.7936 55.5568 50.2557 55.6618 50.3922Z" fill="#263238"/>
<path d="M45.4433 65.7673C44.3248 65.2497 43.1467 64.8723 41.9356 64.6436C41.3685 64.5071 40.8854 64.318 40.8119 63.919C40.8365 63.3271 41.0458 62.7579 41.4105 62.2911C42.1247 60.9889 42.8808 59.6341 43.658 58.2058C46.8086 52.3666 49.1716 47.5461 48.909 47.4201C48.6465 47.2941 45.9264 51.915 42.7758 57.7542L40.5913 61.8815C40.1405 62.516 39.9319 63.2909 40.0032 64.066C40.0561 64.2767 40.1578 64.472 40.3001 64.6362C40.4424 64.8004 40.6213 64.9288 40.8224 65.0112C41.1231 65.1439 41.4415 65.2323 41.7676 65.2737C42.9654 65.6009 44.2016 65.7669 45.4433 65.7673Z" fill="#263238"/>
<path d="M56.9115 44.0699C57.1216 44.8996 59.2115 44.5005 61.6585 44.9311C64.1055 45.3617 66.1009 46.3384 66.4265 45.5928C66.5735 45.2357 66.2269 44.4585 65.4288 43.6499C64.4608 42.701 63.2259 42.0707 61.8895 41.8435C60.6135 41.6324 59.3036 41.8582 58.1718 42.4841C57.2791 43.0197 56.817 43.6709 56.9115 44.0699Z" fill="#F5F5F5"/>
<path d="M34.8256 42.2111C35.1826 42.9883 37.073 42.4841 39.2364 42.7362C41.3999 42.9883 43.1432 43.7864 43.6683 43.0513C43.8994 42.7152 43.6683 42.001 43.0067 41.1714C42.103 40.225 40.8864 39.639 39.583 39.5225C38.2714 39.3892 36.9555 39.7322 35.8758 40.4887C35.0251 41.1294 34.668 41.833 34.8256 42.2111Z" fill="#F5F5F5"/>
<path d="M78.1468 61.1253C78.4094 61.0518 88.4599 59.5185 86.8215 69.3485C85.1832 79.1785 75.6578 75.5132 75.6893 75.2297C75.7208 74.9461 78.1468 61.1253 78.1468 61.1253Z" fill="#FFBF9D"/>
<path d="M79.3127 71.9951C79.3127 71.9951 79.4597 72.1526 79.7327 72.3311C80.1089 72.5737 80.5646 72.6603 81.0035 72.5727C82.1062 72.3627 83.2615 70.8608 83.5975 69.0965C83.7644 68.2581 83.7393 67.3928 83.524 66.5655C83.4883 66.2433 83.3738 65.9349 83.1906 65.6675C83.0075 65.4001 82.7613 65.1819 82.4738 65.0322C82.2903 64.9555 82.086 64.9439 81.895 64.9993C81.704 65.0547 81.5376 65.1737 81.4236 65.3367C81.2451 65.5888 81.2766 65.7883 81.2136 65.7988C81.1505 65.8093 81.035 65.5993 81.2136 65.2107C81.3122 64.9758 81.4857 64.7801 81.7072 64.6541C82.0124 64.4989 82.3652 64.4652 82.6944 64.5596C83.0841 64.7089 83.4294 64.955 83.6976 65.2747C83.9659 65.5944 84.1483 65.9772 84.2277 66.3869C84.507 67.3063 84.5539 68.2806 84.3642 69.2225C83.9756 71.1969 82.6524 72.8772 81.1611 73.0558C80.8841 73.0881 80.6034 73.0576 80.3398 72.9667C80.0762 72.8758 79.8364 72.7268 79.6382 72.5307C79.2917 72.2366 79.2707 72.0161 79.3127 71.9951Z" fill="#FF9A6C"/>
<path d="M77.7688 116.545C78.5597 109.433 78.8474 102.274 78.63 95.1208C79.5962 93.2829 80.0163 91.2455 78.8611 89.7962C76.8132 87.2232 81.6231 81.9931 79.3967 79.5041C77.1702 77.0151 78.0314 72.0791 78.0314 72.0791H77.8003L80.0163 58.5314C80.0163 58.5314 77.2332 56.9141 75.1118 60.9574C74.5762 62.0076 71.016 70.7664 70.3858 72.3207H70.1233C69.6087 71.6065 67.8233 69.6846 64.2526 70.7874C62.2139 69.3377 59.9836 68.1784 57.6258 67.3427C54.7527 66.2427 51.6828 65.7504 48.6098 65.8968C45.5369 66.0432 42.5276 66.8252 39.7722 68.1933C38.4219 68.8838 37.1684 69.7489 36.0439 70.7664C36.0439 70.7664 30.1312 71.0604 28.8079 68.6659C27.4847 66.2715 26.7075 64.4651 26.7075 64.4651C26.0199 65.9849 25.6006 67.6122 25.4683 69.2751C24.04 70.9134 20.6688 75.2928 21.0259 78.5169C21.0259 78.6219 21.0259 78.727 21.0259 78.832H20.3327C20.7072 79.3586 20.9617 79.9608 21.0784 80.5964C21.0611 82.2716 20.7666 83.9324 20.2067 85.5113C19.899 86.1574 19.5482 86.7819 19.1565 87.3807L18.6629 88.1369C18.6629 88.1369 18.6629 88.1369 18.6104 88.1369C18.2582 88.5239 17.9741 88.9677 17.7702 89.4496C16.5414 91.403 15.5122 93.4615 15.8168 95.6774C16.1739 98.2084 18.2218 100.235 18.6629 102.745C19.1355 105.434 17.7177 107.996 16.762 110.601C15.2254 114.948 14.9606 119.643 15.9986 124.136C17.0365 128.628 19.3343 132.731 22.6222 135.964H19.9021C20.9496 139.491 23.0678 142.606 25.9635 144.877C28.8592 147.148 32.3891 148.463 36.0649 148.64C35.607 150.036 34.8635 151.322 33.8818 152.416C32.9 153.51 31.7015 154.388 30.3623 154.993C32.1351 155.742 34.0433 156.118 35.9678 156.096C37.8922 156.074 39.7915 155.656 41.547 154.867C41.4096 155.861 40.9796 156.791 40.312 157.539C39.6443 158.287 38.7691 158.819 37.7978 159.068C42.3835 159.025 46.8742 157.756 50.804 155.392C54.7337 153.029 57.9594 149.656 60.1463 145.626C62.2467 141.624 63.3809 136.951 66.6156 133.79C68.716 131.689 71.5201 130.513 73.5365 128.381C76.4876 125.272 77.2857 120.788 77.7688 116.545Z" fill="#EDEDED"/>
<path d="M52.9208 71.8796C52.9611 70.9686 52.8366 70.0578 52.5532 69.191C50.0327 69.9367 47.5437 70.7874 45.1072 71.743V71.8271C45.3306 72.5543 45.6989 73.2287 46.1898 73.8099C46.6807 74.3911 47.2841 74.8669 47.9638 75.2088C48.6379 75.4592 49.3694 75.5121 50.0725 75.3615C50.7757 75.2108 51.4213 74.8627 51.9336 74.3581C52.5343 73.6678 52.8824 72.7938 52.9208 71.8796Z" fill="white"/>
<path d="M45.9158 73.4339C45.9158 73.4339 46.0838 73.6649 46.4304 74.0115C46.9121 74.4969 47.5194 74.8387 48.1843 74.9987C48.6404 75.1136 49.1123 75.1526 49.581 75.1142C50.0962 75.1083 50.5963 74.9391 51.0093 74.6311C51.4691 74.2329 51.8334 73.7364 52.0752 73.1782C52.317 72.6201 52.4301 72.0147 52.4061 71.407C52.3882 70.7148 52.2715 70.0287 52.0595 69.3696L52.3851 69.5376C50.2847 70.1887 48.3943 70.7348 47.0605 71.1024C46.356 71.3455 45.627 71.511 44.8866 71.596C45.5536 71.2446 46.2582 70.9698 46.987 70.7768C48.2998 70.3147 50.1377 69.7266 52.2381 69.023L52.4796 68.9495L52.5636 69.2015C52.8033 69.913 52.9343 70.6565 52.9522 71.407C52.9777 72.0949 52.843 72.7794 52.5587 73.4064C52.2744 74.0333 51.8482 74.5856 51.3139 75.0197C50.8178 75.3842 50.2176 75.5793 49.6021 75.5763C49.0872 75.5893 48.5734 75.522 48.0792 75.3768C47.3629 75.1673 46.7308 74.7373 46.2729 74.148C46.0879 73.9491 45.964 73.7012 45.9158 73.4339Z" fill="#263238"/>
<path d="M29.6901 91.4974C29.6901 91.5604 29.06 91.1824 28.3459 90.3317C27.4332 89.2014 26.762 87.896 26.3736 86.4961C25.9852 85.0962 25.888 83.6315 26.0879 82.1925C26.2664 81.1423 26.5605 80.4702 26.6445 80.4912C26.7285 80.5122 26.1824 83.1797 27.0751 86.2989C27.9678 89.418 29.8162 91.3504 29.6901 91.4974Z" fill="white"/>
<path d="M32.6411 96.9166C32.4941 97.0322 31.1183 95.3203 30.2571 92.7893C29.396 90.2583 29.4065 88.0634 29.5955 88.0634C29.7846 88.0634 30.0996 90.1638 30.9398 92.5583C31.78 94.9527 32.8407 96.8221 32.6411 96.9166Z" fill="white"/>
<path d="M71.6985 89.019C71.8876 89.019 72.0451 90.6154 71.3835 92.4532C70.7219 94.2911 69.5981 95.4358 69.4511 95.3098C69.3041 95.1838 70.1022 93.9235 70.7008 92.2117C71.2994 90.4999 71.499 89.019 71.6985 89.019Z" fill="#EDEDED"/>
<path d="M108.288 100.067C114.988 93.682 112.583 83.9465 108.792 81.9721C106.083 80.5648 102.774 79.4411 101.651 76.6055C100.527 73.7699 102.281 70.1572 101.115 67.1536C100.209 65.3235 98.6668 63.8861 96.7776 63.1103C94.9118 62.3479 93.1479 61.3566 91.5266 60.1592C86.16 55.4962 88.502 45.9708 83.7235 40.6882L79.7222 38.1362C73.5469 53.6269 74.6076 70.9764 71.0684 87.2757C69.9237 92.5898 68.2644 97.9563 68.8945 103.354C69.055 105.557 69.887 107.657 71.2785 109.372C71.9896 110.213 72.925 110.833 73.9756 111.163C75.0261 111.492 76.1486 111.515 77.2122 111.231C77.5295 111.125 77.8355 110.988 78.1258 110.821C82.1271 108.574 85.6243 107.366 98.794 103.943L108.288 100.067Z" fill="#EDEDED"/>
<path d="M80.2474 44.8892C77.1698 41.283 73.4572 38.2716 69.2936 36.0044C63.9228 32.9264 58.1854 30.5376 52.2172 28.8944C49.2022 27.97 46.0658 27.5028 42.9123 27.5082C39.7414 27.5223 36.658 28.5489 34.1115 30.4382C32.9878 31.3414 28.5139 32.5387 27.4007 31.5935C26.8861 31.1524 27.1696 30.1442 27.1381 29.4931C26.9911 26.4684 30.8243 23.6539 33.1453 21.7215C35.2457 19.9676 38.1338 19.0329 39.5411 16.6805C40.1187 15.7143 40.3813 14.58 41.0009 13.6243C42.3032 11.6394 44.8552 10.9148 47.2182 10.6837C56.7436 9.7491 65.8594 14.433 73.9251 19.558C79.7012 23.2128 85.3409 27.2351 89.7728 32.4231C92.4928 35.5738 94.8243 39.8481 93.459 43.7969C92.8499 45.5613 91.5686 47.0211 90.9175 48.775C90.285 50.7766 89.8661 52.8394 89.6677 54.9292C89.4157 56.7881 88.8066 58.6049 86.8112 58.3004C86.8112 58.3004 86.1391 52.0936 80.2474 44.8892Z" fill="white"/>
<path d="M105.936 100.214C105.936 100.214 106.146 100.067 106.492 99.7207C106.965 99.1873 107.355 98.5854 107.647 97.9353C108.157 96.727 108.419 95.429 108.419 94.1178C108.419 92.8066 108.157 91.5086 107.647 90.3003C106.482 87.1496 103.321 84.2195 99.2458 82.4027C97.1328 81.4577 94.9441 80.6918 92.7029 80.1132C90.4345 79.4726 88.0715 78.6429 86.4752 76.8575C84.8788 75.0722 84.8999 72.6042 85.3619 70.3777C85.824 68.1513 86.4121 65.7778 85.572 63.5619C85.1327 62.5263 84.4033 61.64 83.4715 61.0098C82.5999 60.3902 81.6967 59.9596 80.8775 59.4345C79.3638 58.561 78.0789 57.3409 77.1283 55.8743C75.7576 53.7502 75.0958 51.2463 75.2379 48.7224C75.3954 46.9475 75.7945 46.0023 75.7105 45.9813C75.6265 45.9603 75.5739 46.1913 75.3954 46.6429C75.1592 47.3236 74.9972 48.0278 74.9123 48.7434C74.6251 51.3581 75.2203 53.9938 76.6032 56.2314C77.5687 57.8079 78.9021 59.1268 80.4889 60.0751C82.1273 61.1254 84.1437 61.997 84.8788 63.8979C85.614 65.7988 85.0049 68.0148 84.5743 70.2832C84.3018 71.4775 84.2098 72.7059 84.3012 73.9274C84.4302 75.2381 84.979 76.4721 85.866 77.4457C87.6619 79.4516 90.2244 80.3127 92.5034 80.9534C94.7196 81.4935 96.887 82.2172 98.9832 83.1168C102.921 84.8392 105.957 87.5697 107.122 90.5208C108.154 92.8281 108.244 95.4468 107.374 97.8198C106.987 98.6698 106.504 99.4731 105.936 100.214Z" fill="white"/>
<path d="M37.4196 118.519C36.6346 118.495 35.8701 118.263 35.2036 117.847C34.4569 117.32 33.8393 116.631 33.3973 115.831C32.8275 114.743 32.4273 113.574 32.2105 112.365C31.945 110.829 31.4307 109.346 30.6877 107.975C29.7635 106.452 28.1357 105.486 26.6969 104.436C25.1582 103.413 24.0397 101.869 23.5463 100.088C23.0323 98.1399 22.9038 96.11 23.1682 94.1125C23.3677 92.0121 23.7563 89.9747 23.8508 87.9267C23.955 85.9598 23.7458 83.9888 23.2312 82.0876C22.7622 80.43 22.4285 78.7371 22.2335 77.0255C22.1185 75.5502 22.2535 74.0661 22.6326 72.6357C23.1752 70.5371 24.1839 68.5879 25.5837 66.933C26.5814 65.7568 27.2745 65.2317 27.222 65.1686C27.1695 65.1056 27.012 65.2527 26.6759 65.4942C26.188 65.8543 25.7313 66.2548 25.3106 66.6915C23.7566 68.3166 22.6212 70.2954 22.0024 72.4571C21.5522 73.9537 21.3709 75.5182 21.4668 77.0781C21.6238 78.8344 21.9331 80.5738 22.391 82.2766C22.8707 84.105 23.0586 85.9977 22.9476 87.8847C22.8321 89.8486 22.454 91.8861 22.2335 94.018C21.9675 96.1265 22.1137 98.2666 22.6641 100.319C23.2339 102.281 24.4851 103.976 26.1928 105.098C27.7156 106.148 29.2174 107.041 30.0366 108.353C30.7621 109.643 31.2796 111.04 31.5699 112.491C31.835 113.749 32.3033 114.955 32.9562 116.062C33.4701 116.926 34.1922 117.648 35.0566 118.162C35.3979 118.396 35.7879 118.55 36.1971 118.612C36.6064 118.674 37.0243 118.642 37.4196 118.519Z" fill="white"/>
<path d="M61.1965 63.4148C61.0709 64.0992 61.151 64.8055 61.4267 65.4443C61.7025 66.0832 62.1615 66.6259 62.7457 67.0039C63.3299 67.3819 64.0131 67.5782 64.7088 67.5679C65.4046 67.5576 66.0817 67.3413 66.6545 66.9462C67.2273 66.5511 67.67 65.995 67.9268 65.3483C68.1836 64.7016 68.2428 63.9933 68.097 63.3129C67.9512 62.6325 67.6069 62.0106 67.1077 61.5259C66.6085 61.0412 65.9767 60.7154 65.2923 60.5897C64.8379 60.5063 64.3715 60.5131 63.9197 60.61C63.4679 60.7068 63.0396 60.8916 62.6593 61.1539C62.279 61.4163 61.954 61.751 61.703 62.1389C61.452 62.5268 61.2799 62.9604 61.1965 63.4148Z" fill="#FF9A6C"/>
<path d="M27.8943 60.1592C27.7686 60.8436 27.8487 61.5499 28.1245 62.1887C28.4002 62.8276 28.8592 63.3703 29.4435 63.7483C30.0277 64.1263 30.7108 64.3226 31.4066 64.3123C32.1023 64.302 32.7794 64.0857 33.3522 63.6906C33.925 63.2955 34.3678 62.7394 34.6246 62.0927C34.8813 61.446 34.9406 60.7377 34.7948 60.0573C34.649 59.3769 34.3047 58.755 33.8055 58.2703C33.3062 57.7856 32.6745 57.4598 31.9901 57.3341C31.5357 57.2507 31.0692 57.2575 30.6175 57.3543C30.1657 57.4512 29.7374 57.636 29.3571 57.8983C28.9767 58.1607 28.6518 58.4954 28.4008 58.8833C28.1498 59.2712 27.9777 59.7047 27.8943 60.1592Z" fill="#FF9A6C"/>
<path d="M19.188 130.712C18.6353 131.048 18.0377 131.302 17.4131 131.469C15.6311 131.972 13.7445 131.972 11.9625 131.469C10.6826 131.124 9.48578 130.524 8.44429 129.704C7.84763 129.237 7.30828 128.701 6.83747 128.108C6.35008 127.46 5.94443 126.755 5.62972 126.007C4.96095 124.343 4.72955 122.535 4.95758 120.756C5.21082 118.762 6.05581 116.889 7.38357 115.379L7.55161 115.757C6.69665 115.724 5.85815 115.512 5.08963 115.136C4.32111 114.76 3.63946 114.227 3.0882 113.573C1.89616 112.211 1.1358 110.526 0.90376 108.731C0.735047 106.854 0.956754 104.963 1.5549 103.176C2.1649 101.34 2.90544 99.55 3.77085 97.8197V98.1033C2.35212 96.3801 1.34835 94.354 0.837048 92.1813C0.325744 90.0086 0.320576 87.7475 0.821952 85.5725C1.32333 83.3975 2.31784 81.3668 3.72869 79.6372C5.13954 77.9076 6.92898 76.5254 8.95889 75.5972L8.83287 75.9543C8.15005 74.4678 7.80884 72.8473 7.83429 71.2117C7.85973 69.5761 8.25118 67.9669 8.9799 66.5024C9.66369 65.1202 10.6467 63.9076 11.8575 62.9527C13.0442 62.039 14.294 61.3458 15.3547 60.4847C16.4361 59.7457 17.1889 58.6164 17.4551 57.334C17.518 56.0816 17.518 54.8267 17.4551 53.5743C17.521 52.3711 17.8817 51.2026 18.5053 50.1716C19.0829 49.1844 19.7446 48.3232 20.3327 47.4935C20.9159 46.7253 21.429 45.9064 21.866 45.0465C22.2358 44.2769 22.5244 43.4709 22.7272 42.6416C23.1158 41.0977 23.2733 39.722 23.4623 38.6087C23.6514 37.4955 23.7984 36.6448 23.9454 36.0777C24.0189 35.7837 24.0925 35.5736 24.1345 35.4266C24.1496 35.3536 24.1743 35.283 24.208 35.2166C24.17 35.5138 24.1139 35.8084 24.0399 36.0987C23.9244 36.6658 23.7879 37.527 23.6409 38.6402C23.491 40.0056 23.2702 41.3622 22.9792 42.7046C22.7911 43.5591 22.5093 44.3903 22.1391 45.1831C21.7078 46.0637 21.1981 46.9038 20.6163 47.6931C20.0281 48.5332 19.377 49.3944 18.8309 50.3606C18.2273 51.3394 17.8672 52.4486 17.7807 53.5953C17.8791 54.86 17.9071 56.1292 17.8647 57.397C17.5962 58.7902 16.803 60.0271 15.6488 60.8522C14.546 61.7449 13.2963 62.4591 12.162 63.3412C11.0102 64.2541 10.0772 65.4132 9.4315 66.7334C8.73879 68.1328 8.36881 69.6697 8.34882 71.231C8.32882 72.7922 8.65933 74.3381 9.31597 75.7548L9.4315 75.9963L9.17944 76.1118C7.22589 77.0074 5.50396 78.3394 4.1463 80.0053C2.78864 81.6711 1.83148 83.6264 1.34855 85.7205C0.865613 87.8146 0.869792 89.9915 1.36076 92.0838C1.85173 94.176 2.81639 96.1276 4.18043 97.7882L4.28545 97.9247L4.21194 98.0718C3.35858 99.7701 2.62173 101.524 2.00649 103.323C1.42947 105.042 1.21143 106.861 1.36586 108.668C1.57416 110.363 2.28357 111.958 3.40327 113.247C3.90985 113.853 4.53605 114.348 5.24265 114.7C5.94925 115.052 6.72103 115.255 7.50961 115.295H8.0242L7.67763 115.663C6.40293 117.099 5.58728 118.884 5.33566 120.788C5.09932 122.502 5.3054 124.248 5.93429 125.86C6.22759 126.583 6.60852 127.268 7.06852 127.898C7.53912 128.489 8.08252 129.018 8.68584 129.473C9.68774 130.281 10.841 130.881 12.078 131.237C13.8153 131.762 15.6618 131.809 17.4236 131.374C18.5999 131.017 19.188 130.67 19.188 130.712Z" fill="#263238"/>
</g>
<defs>
<clipPath id="clip0_46_1156">
<rect width="119" height="100" fill="white"/>
</clipPath>
</defs>
</svg>
