<svg width="349" height="165" viewBox="0 0 349 165" fill="none" xmlns="http://www.w3.org/2000/svg">
<path d="M340.16 145.4C340.16 146.2 337.36 146.6 331.76 146.6C325.093 146.334 321.76 145.9 321.76 145.3V109.9H316.66C315.327 109.9 314.66 107.6 314.66 103C314.66 101.8 314.76 100.334 314.96 98.6002C315.227 96.8669 315.727 96.0002 316.46 96.0002H321.76V87.2002C321.76 85.8669 324.56 85.2002 330.16 85.2002C335.827 85.2002 338.66 85.7335 338.66 86.8002V93.2002L338.76 96.0002H347.26C348.393 96.0002 348.96 98.3335 348.96 103C348.96 107.667 348.393 110 347.26 110H340.16V145.4Z" fill="#ADCCF0"/>
<path d="M306.327 143.3C302.127 145.767 296.727 147 290.127 147C283.527 147 277.961 144.767 273.427 140.3C268.894 135.767 266.627 129.533 266.627 121.6C266.627 113.6 268.794 107.167 273.127 102.3C277.527 97.4333 283.061 95 289.727 95C296.394 95 301.527 96.7 305.127 100.1C308.794 103.5 310.627 107.633 310.627 112.5C310.627 123.3 304.427 128.7 292.027 128.7H285.127C285.127 130.7 285.661 132.1 286.727 132.9C287.861 133.633 289.494 134 291.627 134C296.294 134 300.727 132.933 304.927 130.8C304.994 130.733 305.294 131.2 305.827 132.2C307.427 135.067 308.227 137.5 308.227 139.5C308.227 141.433 307.594 142.7 306.327 143.3ZM293.827 114.4C293.827 111.6 292.461 110.2 289.727 110.2C288.461 110.2 287.361 110.6 286.427 111.4C285.561 112.133 285.127 113.233 285.127 114.7V117.8H290.527C292.727 117.8 293.827 116.667 293.827 114.4Z" fill="#ADCCF0"/>
<path d="M225.608 128C231.008 131.267 235.274 132.9 238.408 132.9C240.408 132.9 241.408 132.2 241.408 130.8C241.408 129.8 239.674 128.5 236.208 126.9C227.874 123.5 223.708 117.933 223.708 110.2C223.708 105.267 225.508 101.5 229.108 98.9C232.708 96.3 237.008 95 242.008 95C247.074 95 251.341 95.5333 254.808 96.6C258.341 97.6667 260.108 99.0667 260.108 100.8C260.108 102.267 259.374 104.2 257.908 106.6C256.508 109 255.541 110.3 255.008 110.5C252.141 108.9 249.041 108.1 245.708 108.1C243.908 108.1 243.008 108.733 243.008 110C243.008 110.8 243.341 111.5 244.008 112.1C244.741 112.633 246.041 113.333 247.908 114.2C249.774 115 251.308 115.733 252.508 116.4C253.774 117.067 255.174 118 256.708 119.2C259.908 121.733 261.508 125.033 261.508 129.1C261.508 134.433 259.741 138.767 256.208 142.1C252.674 145.367 247.341 147 240.208 147C235.474 147 231.174 146.2 227.308 144.6C223.441 143 221.508 140.8 221.508 138C221.508 136.133 221.941 134.167 222.808 132.1C223.741 130.033 224.674 128.667 225.608 128Z" fill="#ADCCF0"/>
<path d="M189.539 164.2C189.539 164.667 186.672 164.9 180.939 164.9C175.272 164.9 172.439 164.667 172.439 164.2V112.7H169.039C167.439 112.7 166.339 111.233 165.739 108.3C165.539 107.367 165.439 106.167 165.439 104.7C165.439 103.233 165.906 101.5 166.839 99.5001C168.172 96.5668 170.306 95.1001 173.239 95.1001C175.172 95.1001 176.939 95.5668 178.539 96.5001C180.206 97.3668 181.339 98.2001 181.939 99.0001C182.606 99.7334 182.939 100.167 182.939 100.3C187.406 96.8334 192.239 95.1001 197.439 95.1001C202.639 95.1001 207.106 97.1334 210.839 101.2C214.572 105.2 216.439 111.433 216.439 119.9C216.439 128.3 214.572 134.833 210.839 139.5C207.106 144.1 202.372 146.4 196.639 146.4C194.039 146.4 191.672 146.267 189.539 146V164.2ZM193.639 112.6C192.506 112.6 191.406 112.967 190.339 113.7V131.4C191.472 131.533 192.372 131.6 193.039 131.6C193.772 131.6 194.339 131.6 194.739 131.6C197.472 131.333 198.839 127.833 198.839 121.1C198.839 115.433 197.106 112.6 193.639 112.6Z" fill="#ADCCF0"/>
<path d="M158.995 145.4C158.995 145.933 155.929 146.2 149.795 146.2C143.729 146.2 140.695 145.967 140.695 145.5V96.4001C140.695 95.9334 143.729 95.7001 149.795 95.7001C155.929 95.7001 158.995 95.9001 158.995 96.3001V145.4ZM158.995 90.4001C158.995 90.8668 155.929 91.1001 149.795 91.1001C143.729 91.1001 140.695 90.9001 140.695 90.5001V76.1001C140.695 75.4334 143.729 75.1001 149.795 75.1001C155.929 75.1001 158.995 75.3001 158.995 75.7001V90.4001Z" fill="#ADCCF0"/>
<path d="M127.319 143.193C127.319 145.731 120.975 147 108.288 147C95.6012 147 89.2577 145.731 89.2577 143.193V47.6421H66.1902C64.0116 47.6421 62.4738 44.7235 61.5767 38.8864C61.1922 36.0947 61 33.2396 61 30.321C61 27.4025 61.1922 24.5473 61.5767 21.7557C62.4738 15.9186 64.0116 13 66.1902 13H149.81C151.988 13 153.526 15.9186 154.423 21.7557C154.808 24.5473 155 27.4025 155 30.321C155 33.2396 154.808 36.0947 154.423 38.8864C153.526 44.7235 151.988 47.6421 149.81 47.6421H127.319V143.193Z" fill="#ADCCF0"/>
<path d="M109.313 55.25C109.318 46.0971 107.01 37.0913 102.604 29.0691C98.1969 21.0468 91.8343 14.2683 84.1068 9.36318C76.3792 4.45803 67.5374 1.58536 58.4025 1.01197C49.2676 0.438573 40.1359 2.18306 31.8557 6.08341C23.5754 9.98375 16.4152 15.9134 11.04 23.3217C5.66475 30.7299 2.24894 39.3765 1.1098 48.4582C-0.0293457 57.5399 1.14513 66.7622 4.52414 75.2686C7.90314 83.7749 13.3771 91.2893 20.4375 97.1139V144.125C20.4369 144.967 20.6517 145.795 21.0614 146.531C21.4711 147.267 22.0622 147.885 22.7784 148.328C23.4946 148.771 24.3122 149.023 25.1534 149.061C25.9946 149.099 26.8315 148.921 27.5845 148.544L55 134.867L82.4216 148.575C83.1093 148.903 83.863 149.07 84.625 149.063C85.9345 149.063 87.1904 148.542 88.1164 147.616C89.0423 146.69 89.5625 145.435 89.5625 144.125V97.1139C95.7401 92.0259 100.715 85.6335 104.129 78.3955C107.544 71.1574 109.314 63.2531 109.313 55.25ZM10.5625 55.25C10.5625 46.4611 13.1687 37.8696 18.0516 30.5619C22.9344 23.2542 29.8746 17.5585 37.9945 14.1951C46.1144 10.8318 55.0493 9.95175 63.6693 11.6664C72.2894 13.381 80.2074 17.6133 86.4221 23.828C92.6368 30.0427 96.869 37.9607 98.5837 46.5807C100.298 55.2007 99.4183 64.1356 96.0549 72.2555C92.6915 80.3754 86.9959 87.3156 79.6882 92.1985C72.3805 97.0813 63.7889 99.6875 55 99.6875C43.2185 99.6745 31.9232 94.9885 23.5924 86.6577C15.2616 78.3268 10.5756 67.0316 10.5625 55.25ZM20.4375 55.25C20.4375 48.4142 22.4646 41.7319 26.2623 36.0481C30.0601 30.3644 35.458 25.9344 41.7735 23.3184C48.089 20.7025 55.0383 20.018 61.7428 21.3516C68.4473 22.6852 74.6057 25.977 79.4394 30.8106C84.273 35.6443 87.5648 41.8027 88.8984 48.5072C90.232 55.2117 89.5476 62.1611 86.9316 68.4765C84.3156 74.792 79.8857 80.1899 74.2019 83.9877C68.5181 87.7855 61.8358 89.8125 55 89.8125C45.8365 89.8027 37.0511 86.1582 30.5715 79.6786C24.0919 73.199 20.4473 64.4136 20.4375 55.25Z" fill="#F1C423"/>
<path d="M334.16 140.4C334.16 141.2 331.36 141.6 325.76 141.6C319.093 141.334 315.76 140.9 315.76 140.3V104.9H310.66C309.327 104.9 308.66 102.6 308.66 98.0002C308.66 96.8002 308.76 95.3335 308.96 93.6002C309.227 91.8669 309.727 91.0002 310.46 91.0002H315.76V82.2002C315.76 80.8669 318.56 80.2002 324.16 80.2002C329.827 80.2002 332.66 80.7335 332.66 81.8002V88.2002L332.76 91.0002H341.26C342.393 91.0002 342.96 93.3335 342.96 98.0002C342.96 102.667 342.393 105 341.26 105H334.16V140.4Z" fill="#0070F3"/>
<path d="M300.327 138.3C296.127 140.767 290.727 142 284.127 142C277.527 142 271.961 139.767 267.427 135.3C262.894 130.767 260.627 124.533 260.627 116.6C260.627 108.6 262.794 102.167 267.127 97.3C271.527 92.4333 277.061 90 283.727 90C290.394 90 295.527 91.7 299.127 95.1C302.794 98.5 304.627 102.633 304.627 107.5C304.627 118.3 298.427 123.7 286.027 123.7H279.127C279.127 125.7 279.661 127.1 280.727 127.9C281.861 128.633 283.494 129 285.627 129C290.294 129 294.727 127.933 298.927 125.8C298.994 125.733 299.294 126.2 299.827 127.2C301.427 130.067 302.227 132.5 302.227 134.5C302.227 136.433 301.594 137.7 300.327 138.3ZM287.827 109.4C287.827 106.6 286.461 105.2 283.727 105.2C282.461 105.2 281.361 105.6 280.427 106.4C279.561 107.133 279.127 108.233 279.127 109.7V112.8H284.527C286.727 112.8 287.827 111.667 287.827 109.4Z" fill="#0070F3"/>
<path d="M219.608 123C225.008 126.267 229.274 127.9 232.408 127.9C234.408 127.9 235.408 127.2 235.408 125.8C235.408 124.8 233.674 123.5 230.208 121.9C221.874 118.5 217.708 112.933 217.708 105.2C217.708 100.267 219.508 96.5 223.108 93.9C226.708 91.3 231.008 90 236.008 90C241.074 90 245.341 90.5333 248.808 91.6C252.341 92.6667 254.108 94.0667 254.108 95.8C254.108 97.2667 253.374 99.2 251.908 101.6C250.508 104 249.541 105.3 249.008 105.5C246.141 103.9 243.041 103.1 239.708 103.1C237.908 103.1 237.008 103.733 237.008 105C237.008 105.8 237.341 106.5 238.008 107.1C238.741 107.633 240.041 108.333 241.908 109.2C243.774 110 245.308 110.733 246.508 111.4C247.774 112.067 249.174 113 250.708 114.2C253.908 116.733 255.508 120.033 255.508 124.1C255.508 129.433 253.741 133.767 250.208 137.1C246.674 140.367 241.341 142 234.208 142C229.474 142 225.174 141.2 221.308 139.6C217.441 138 215.508 135.8 215.508 133C215.508 131.133 215.941 129.167 216.808 127.1C217.741 125.033 218.674 123.667 219.608 123Z" fill="#0070F3"/>
<path d="M183.539 159.2C183.539 159.667 180.672 159.9 174.939 159.9C169.272 159.9 166.439 159.667 166.439 159.2V107.7H163.039C161.439 107.7 160.339 106.233 159.739 103.3C159.539 102.367 159.439 101.167 159.439 99.7001C159.439 98.2334 159.906 96.5001 160.839 94.5001C162.172 91.5668 164.306 90.1001 167.239 90.1001C169.172 90.1001 170.939 90.5668 172.539 91.5001C174.206 92.3668 175.339 93.2001 175.939 94.0001C176.606 94.7334 176.939 95.1668 176.939 95.3001C181.406 91.8334 186.239 90.1001 191.439 90.1001C196.639 90.1001 201.106 92.1334 204.839 96.2001C208.572 100.2 210.439 106.433 210.439 114.9C210.439 123.3 208.572 129.833 204.839 134.5C201.106 139.1 196.372 141.4 190.639 141.4C188.039 141.4 185.672 141.267 183.539 141V159.2ZM187.639 107.6C186.506 107.6 185.406 107.967 184.339 108.7V126.4C185.472 126.533 186.372 126.6 187.039 126.6C187.772 126.6 188.339 126.6 188.739 126.6C191.472 126.333 192.839 122.833 192.839 116.1C192.839 110.433 191.106 107.6 187.639 107.6Z" fill="#0070F3"/>
<path d="M152.995 140.4C152.995 140.933 149.929 141.2 143.795 141.2C137.729 141.2 134.695 140.967 134.695 140.5V91.4001C134.695 90.9334 137.729 90.7001 143.795 90.7001C149.929 90.7001 152.995 90.9001 152.995 91.3001V140.4ZM152.995 85.4001C152.995 85.8668 149.929 86.1001 143.795 86.1001C137.729 86.1001 134.695 85.9001 134.695 85.5001V71.1001C134.695 70.4334 137.729 70.1001 143.795 70.1001C149.929 70.1001 152.995 70.3001 152.995 70.7001V85.4001Z" fill="#0070F3"/>
<path d="M121.319 138.193C121.319 140.731 114.975 142 102.288 142C89.6012 142 83.2577 140.731 83.2577 138.193V42.6421H60.1902C58.0116 42.6421 56.4738 39.7235 55.5767 33.8864C55.1922 31.0947 55 28.2396 55 25.321C55 22.4025 55.1922 19.5473 55.5767 16.7557C56.4738 10.9186 58.0116 8 60.1902 8H143.81C145.988 8 147.526 10.9186 148.423 16.7557C148.808 19.5473 149 22.4025 149 25.321C149 28.2396 148.808 31.0947 148.423 33.8864C147.526 39.7235 145.988 42.6421 143.81 42.6421H121.319V138.193Z" fill="#0070F3"/>
</svg>
