<svg width="347" height="164" viewBox="0 0 347 164" fill="none" xmlns="http://www.w3.org/2000/svg">
<path d="M338.16 144.4C338.16 145.2 335.36 145.6 329.76 145.6C323.093 145.334 319.76 144.9 319.76 144.3V108.9H314.66C313.327 108.9 312.66 106.6 312.66 102C312.66 100.8 312.76 99.3335 312.96 97.6002C313.227 95.8669 313.727 95.0002 314.46 95.0002H319.76V86.2002C319.76 84.8669 322.56 84.2002 328.16 84.2002C333.827 84.2002 336.66 84.7335 336.66 85.8002V92.2002L336.76 95.0002H345.26C346.393 95.0002 346.96 97.3335 346.96 102C346.96 106.667 346.393 109 345.26 109H338.16V144.4Z" fill="#0D54A8"/>
<path d="M304.327 142.3C300.127 144.767 294.727 146 288.127 146C281.527 146 275.961 143.767 271.427 139.3C266.894 134.767 264.627 128.533 264.627 120.6C264.627 112.6 266.794 106.167 271.127 101.3C275.527 96.4333 281.061 94 287.727 94C294.394 94 299.527 95.7 303.127 99.1C306.794 102.5 308.627 106.633 308.627 111.5C308.627 122.3 302.427 127.7 290.027 127.7H283.127C283.127 129.7 283.661 131.1 284.727 131.9C285.861 132.633 287.494 133 289.627 133C294.294 133 298.727 131.933 302.927 129.8C302.994 129.733 303.294 130.2 303.827 131.2C305.427 134.067 306.227 136.5 306.227 138.5C306.227 140.433 305.594 141.7 304.327 142.3ZM291.827 113.4C291.827 110.6 290.461 109.2 287.727 109.2C286.461 109.2 285.361 109.6 284.427 110.4C283.561 111.133 283.127 112.233 283.127 113.7V116.8H288.527C290.727 116.8 291.827 115.667 291.827 113.4Z" fill="#0D54A8"/>
<path d="M223.608 127C229.008 130.267 233.274 131.9 236.408 131.9C238.408 131.9 239.408 131.2 239.408 129.8C239.408 128.8 237.674 127.5 234.208 125.9C225.874 122.5 221.708 116.933 221.708 109.2C221.708 104.267 223.508 100.5 227.108 97.9C230.708 95.3 235.008 94 240.008 94C245.074 94 249.341 94.5333 252.808 95.6C256.341 96.6667 258.108 98.0667 258.108 99.8C258.108 101.267 257.374 103.2 255.908 105.6C254.508 108 253.541 109.3 253.008 109.5C250.141 107.9 247.041 107.1 243.708 107.1C241.908 107.1 241.008 107.733 241.008 109C241.008 109.8 241.341 110.5 242.008 111.1C242.741 111.633 244.041 112.333 245.908 113.2C247.774 114 249.308 114.733 250.508 115.4C251.774 116.067 253.174 117 254.708 118.2C257.908 120.733 259.508 124.033 259.508 128.1C259.508 133.433 257.741 137.767 254.208 141.1C250.674 144.367 245.341 146 238.208 146C233.474 146 229.174 145.2 225.308 143.6C221.441 142 219.508 139.8 219.508 137C219.508 135.133 219.941 133.167 220.808 131.1C221.741 129.033 222.674 127.667 223.608 127Z" fill="#0D54A8"/>
<path d="M187.539 163.2C187.539 163.667 184.672 163.9 178.939 163.9C173.272 163.9 170.439 163.667 170.439 163.2V111.7H167.039C165.439 111.7 164.339 110.233 163.739 107.3C163.539 106.367 163.439 105.167 163.439 103.7C163.439 102.233 163.906 100.5 164.839 98.5001C166.172 95.5668 168.306 94.1001 171.239 94.1001C173.172 94.1001 174.939 94.5668 176.539 95.5001C178.206 96.3668 179.339 97.2001 179.939 98.0001C180.606 98.7334 180.939 99.1668 180.939 99.3001C185.406 95.8334 190.239 94.1001 195.439 94.1001C200.639 94.1001 205.106 96.1334 208.839 100.2C212.572 104.2 214.439 110.433 214.439 118.9C214.439 127.3 212.572 133.833 208.839 138.5C205.106 143.1 200.372 145.4 194.639 145.4C192.039 145.4 189.672 145.267 187.539 145V163.2ZM191.639 111.6C190.506 111.6 189.406 111.967 188.339 112.7V130.4C189.472 130.533 190.372 130.6 191.039 130.6C191.772 130.6 192.339 130.6 192.739 130.6C195.472 130.333 196.839 126.833 196.839 120.1C196.839 114.433 195.106 111.6 191.639 111.6Z" fill="#0D54A8"/>
<path d="M156.995 144.4C156.995 144.933 153.929 145.2 147.795 145.2C141.729 145.2 138.695 144.967 138.695 144.5V95.4001C138.695 94.9334 141.729 94.7001 147.795 94.7001C153.929 94.7001 156.995 94.9001 156.995 95.3001V144.4ZM156.995 89.4001C156.995 89.8668 153.929 90.1001 147.795 90.1001C141.729 90.1001 138.695 89.9001 138.695 89.5001V75.1001C138.695 74.4334 141.729 74.1001 147.795 74.1001C153.929 74.1001 156.995 74.3001 156.995 74.7001V89.4001Z" fill="#0D54A8"/>
<path d="M125.319 142.193C125.319 144.731 118.975 146 106.288 146C93.6012 146 87.2577 144.731 87.2577 142.193V46.6421H64.1902C62.0116 46.6421 60.4738 43.7235 59.5767 37.8864C59.1922 35.0947 59 32.2396 59 29.321C59 26.4025 59.1922 23.5473 59.5767 20.7557C60.4738 14.9186 62.0116 12 64.1902 12H147.81C149.988 12 151.526 14.9186 152.423 20.7557C152.808 23.5473 153 26.4025 153 29.321C153 32.2396 152.808 35.0947 152.423 37.8864C151.526 43.7235 149.988 46.6421 147.81 46.6421H125.319V142.193Z" fill="#0D54A8"/>
<path d="M109.313 55.25C109.318 46.0971 107.01 37.0913 102.604 29.0691C98.1969 21.0468 91.8343 14.2683 84.1068 9.36318C76.3792 4.45803 67.5374 1.58536 58.4025 1.01197C49.2676 0.438573 40.1359 2.18306 31.8557 6.08341C23.5754 9.98375 16.4152 15.9134 11.04 23.3217C5.66475 30.7299 2.24894 39.3765 1.1098 48.4582C-0.0293457 57.5399 1.14513 66.7622 4.52414 75.2686C7.90314 83.7749 13.3771 91.2893 20.4375 97.1139V144.125C20.4369 144.967 20.6517 145.795 21.0614 146.531C21.4711 147.267 22.0622 147.885 22.7784 148.328C23.4946 148.771 24.3122 149.023 25.1534 149.061C25.9946 149.099 26.8315 148.921 27.5845 148.544L55 134.867L82.4216 148.575C83.1093 148.903 83.863 149.07 84.625 149.063C85.9345 149.063 87.1904 148.542 88.1164 147.616C89.0423 146.69 89.5625 145.435 89.5625 144.125V97.1139C95.7401 92.0259 100.715 85.6335 104.129 78.3955C107.544 71.1574 109.314 63.2531 109.313 55.25ZM10.5625 55.25C10.5625 46.4611 13.1687 37.8696 18.0516 30.5619C22.9344 23.2542 29.8746 17.5585 37.9945 14.1951C46.1144 10.8318 55.0493 9.95175 63.6693 11.6664C72.2894 13.381 80.2074 17.6133 86.4221 23.828C92.6368 30.0427 96.869 37.9607 98.5837 46.5807C100.298 55.2007 99.4183 64.1356 96.0549 72.2555C92.6915 80.3754 86.9959 87.3156 79.6882 92.1985C72.3805 97.0813 63.7889 99.6875 55 99.6875C43.2185 99.6745 31.9232 94.9885 23.5924 86.6577C15.2616 78.3268 10.5756 67.0316 10.5625 55.25ZM20.4375 55.25C20.4375 48.4142 22.4646 41.7319 26.2623 36.0481C30.0601 30.3644 35.458 25.9344 41.7735 23.3184C48.089 20.7025 55.0383 20.018 61.7428 21.3516C68.4473 22.6852 74.6057 25.977 79.4394 30.8106C84.273 35.6443 87.5648 41.8027 88.8984 48.5072C90.232 55.2117 89.5476 62.1611 86.9316 68.4765C84.3156 74.792 79.8857 80.1899 74.2019 83.9877C68.5181 87.7855 61.8358 89.8125 55 89.8125C45.8365 89.8027 37.0511 86.1582 30.5715 79.6786C24.0919 73.199 20.4473 64.4136 20.4375 55.25Z" fill="#F1C423"/>
<path d="M334.16 140.4C334.16 141.2 331.36 141.6 325.76 141.6C319.093 141.334 315.76 140.9 315.76 140.3V104.9H310.66C309.327 104.9 308.66 102.6 308.66 98.0002C308.66 96.8002 308.76 95.3335 308.96 93.6002C309.227 91.8669 309.727 91.0002 310.46 91.0002H315.76V82.2002C315.76 80.8669 318.56 80.2002 324.16 80.2002C329.827 80.2002 332.66 80.7335 332.66 81.8002V88.2002L332.76 91.0002H341.26C342.393 91.0002 342.96 93.3335 342.96 98.0002C342.96 102.667 342.393 105 341.26 105H334.16V140.4Z" fill="#0070F3"/>
<path d="M300.327 138.3C296.127 140.767 290.727 142 284.127 142C277.527 142 271.961 139.767 267.427 135.3C262.894 130.767 260.627 124.533 260.627 116.6C260.627 108.6 262.794 102.167 267.127 97.3C271.527 92.4333 277.061 90 283.727 90C290.394 90 295.527 91.7 299.127 95.1C302.794 98.5 304.627 102.633 304.627 107.5C304.627 118.3 298.427 123.7 286.027 123.7H279.127C279.127 125.7 279.661 127.1 280.727 127.9C281.861 128.633 283.494 129 285.627 129C290.294 129 294.727 127.933 298.927 125.8C298.994 125.733 299.294 126.2 299.827 127.2C301.427 130.067 302.227 132.5 302.227 134.5C302.227 136.433 301.594 137.7 300.327 138.3ZM287.827 109.4C287.827 106.6 286.461 105.2 283.727 105.2C282.461 105.2 281.361 105.6 280.427 106.4C279.561 107.133 279.127 108.233 279.127 109.7V112.8H284.527C286.727 112.8 287.827 111.667 287.827 109.4Z" fill="#0070F3"/>
<path d="M219.608 123C225.008 126.267 229.274 127.9 232.408 127.9C234.408 127.9 235.408 127.2 235.408 125.8C235.408 124.8 233.674 123.5 230.208 121.9C221.874 118.5 217.708 112.933 217.708 105.2C217.708 100.267 219.508 96.5 223.108 93.9C226.708 91.3 231.008 90 236.008 90C241.074 90 245.341 90.5333 248.808 91.6C252.341 92.6667 254.108 94.0667 254.108 95.8C254.108 97.2667 253.374 99.2 251.908 101.6C250.508 104 249.541 105.3 249.008 105.5C246.141 103.9 243.041 103.1 239.708 103.1C237.908 103.1 237.008 103.733 237.008 105C237.008 105.8 237.341 106.5 238.008 107.1C238.741 107.633 240.041 108.333 241.908 109.2C243.774 110 245.308 110.733 246.508 111.4C247.774 112.067 249.174 113 250.708 114.2C253.908 116.733 255.508 120.033 255.508 124.1C255.508 129.433 253.741 133.767 250.208 137.1C246.674 140.367 241.341 142 234.208 142C229.474 142 225.174 141.2 221.308 139.6C217.441 138 215.508 135.8 215.508 133C215.508 131.133 215.941 129.167 216.808 127.1C217.741 125.033 218.674 123.667 219.608 123Z" fill="#0070F3"/>
<path d="M183.539 159.2C183.539 159.667 180.672 159.9 174.939 159.9C169.272 159.9 166.439 159.667 166.439 159.2V107.7H163.039C161.439 107.7 160.339 106.233 159.739 103.3C159.539 102.367 159.439 101.167 159.439 99.7001C159.439 98.2334 159.906 96.5001 160.839 94.5001C162.172 91.5668 164.306 90.1001 167.239 90.1001C169.172 90.1001 170.939 90.5668 172.539 91.5001C174.206 92.3668 175.339 93.2001 175.939 94.0001C176.606 94.7334 176.939 95.1668 176.939 95.3001C181.406 91.8334 186.239 90.1001 191.439 90.1001C196.639 90.1001 201.106 92.1334 204.839 96.2001C208.572 100.2 210.439 106.433 210.439 114.9C210.439 123.3 208.572 129.833 204.839 134.5C201.106 139.1 196.372 141.4 190.639 141.4C188.039 141.4 185.672 141.267 183.539 141V159.2ZM187.639 107.6C186.506 107.6 185.406 107.967 184.339 108.7V126.4C185.472 126.533 186.372 126.6 187.039 126.6C187.772 126.6 188.339 126.6 188.739 126.6C191.472 126.333 192.839 122.833 192.839 116.1C192.839 110.433 191.106 107.6 187.639 107.6Z" fill="#0070F3"/>
<path d="M152.995 140.4C152.995 140.933 149.929 141.2 143.795 141.2C137.729 141.2 134.695 140.967 134.695 140.5V91.4001C134.695 90.9334 137.729 90.7001 143.795 90.7001C149.929 90.7001 152.995 90.9001 152.995 91.3001V140.4ZM152.995 85.4001C152.995 85.8668 149.929 86.1001 143.795 86.1001C137.729 86.1001 134.695 85.9001 134.695 85.5001V71.1001C134.695 70.4334 137.729 70.1001 143.795 70.1001C149.929 70.1001 152.995 70.3001 152.995 70.7001V85.4001Z" fill="#0070F3"/>
<path d="M121.319 138.193C121.319 140.731 114.975 142 102.288 142C89.6012 142 83.2577 140.731 83.2577 138.193V42.6421H60.1902C58.0116 42.6421 56.4738 39.7235 55.5767 33.8864C55.1922 31.0947 55 28.2396 55 25.321C55 22.4025 55.1922 19.5473 55.5767 16.7557C56.4738 10.9186 58.0116 8 60.1902 8H143.81C145.988 8 147.526 10.9186 148.423 16.7557C148.808 19.5473 149 22.4025 149 25.321C149 28.2396 148.808 31.0947 148.423 33.8864C147.526 39.7235 145.988 42.6421 143.81 42.6421H121.319V138.193Z" fill="#0070F3"/>
</svg>
