<?xml version="1.0" standalone="no"?>
<!DOCTYPE svg PUBLIC "-//W3C//DTD SVG 20010904//EN"
 "http://www.w3.org/TR/2001/REC-SVG-20010904/DTD/svg10.dtd">
<svg version="1.0" xmlns="http://www.w3.org/2000/svg"
 width="559.000000pt" height="559.000000pt" viewBox="0 0 559.000000 559.000000"
 preserveAspectRatio="xMidYMid meet">
<metadata>
Created by potrace 1.14, written by Peter Selinger 2001-2017
</metadata>
<g transform="translate(0.000000,559.000000) scale(0.100000,-0.100000)"
fill="#000000" stroke="none">
<path d="M1329 5586 c-2 -2 -47 -7 -99 -10 -52 -3 -111 -8 -130 -11 -19 -2
-57 -7 -85 -10 -291 -36 -575 -208 -767 -465 -93 -125 -136 -209 -174 -339
-25 -86 -28 -99 -40 -186 -3 -27 -8 -59 -10 -70 -15 -77 -19 -414 -19 -1710 0
-1549 2 -1624 41 -1825 8 -41 16 -84 18 -95 15 -79 131 -312 180 -360 9 -9 16
-20 16 -24 0 -4 37 -46 83 -92 183 -189 374 -297 607 -344 8 -1 40 -6 70 -10
30 -4 63 -9 72 -11 83 -15 429 -19 1693 -19 1286 0 1671 4 1717 20 7 2 33 6
58 9 89 12 116 18 215 49 116 36 207 85 320 170 72 54 235 212 235 228 0 3 11
18 24 34 33 39 104 164 133 236 26 64 67 239 77 324 18 157 21 393 21 1720 0
1271 -4 1590 -19 1705 -2 14 -7 48 -11 75 -33 248 -147 468 -341 660 -198 197
-420 299 -720 330 -33 4 -78 9 -100 12 -42 6 -3059 15 -3065 9z"/>
</g>
</svg>
