<?xml version="1.0" standalone="no"?>
<!DOCTYPE svg PUBLIC "-//W3C//DTD SVG 20010904//EN"
 "http://www.w3.org/TR/2001/REC-SVG-20010904/DTD/svg10.dtd">
<svg version="1.0" xmlns="http://www.w3.org/2000/svg"
 width="700.000000pt" height="700.000000pt" viewBox="0 0 700.000000 700.000000"
 preserveAspectRatio="xMidYMid meet">
<metadata>
Created by potrace 1.14, written by Peter Selinger 2001-2017
</metadata>
<g transform="translate(0.000000,700.000000) scale(0.100000,-0.100000)"
fill="#000000" stroke="none">
<path d="M1236 6989 c-312 -36 -595 -174 -821 -398 -198 -196 -324 -428 -387
-714 l-23 -102 0 -2275 0 -2275 23 -102 c63 -285 187 -516 384 -712 201 -200
445 -329 733 -388 86 -17 203 -18 2360 -18 l2270 0 102 23 c565 125 970 530
1095 1095 l23 102 0 2275 0 2275 -23 102 c-124 563 -525 965 -1090 1095 l-97
22 -2240 2 c-1232 1 -2271 -2 -2309 -7z m2442 -1120 c441 -48 838 -251 1125
-574 465 -525 575 -1272 280 -1905 -89 -192 -204 -352 -365 -512 l-108 -106 0
-772 c0 -692 -2 -776 -16 -806 -23 -48 -67 -76 -127 -82 -49 -5 -61 0 -509
224 l-458 229 -458 -229 c-448 -224 -460 -229 -509 -224 -60 6 -104 34 -127
82 -14 30 -16 115 -16 808 l0 775 -73 65 c-255 229 -451 572 -525 918 -84 391
-37 776 138 1135 322 660 1028 1053 1748 974z"/>
<path d="M3280 5545 c-313 -54 -570 -185 -790 -405 -201 -199 -334 -446 -397
-733 -26 -118 -25 -437 1 -557 111 -510 473 -920 953 -1078 171 -57 240 -67
453 -67 168 0 209 3 299 23 185 42 349 112 511 220 112 75 299 262 373 373
386 583 315 1333 -173 1819 -278 278 -632 422 -1026 419 -71 -1 -163 -7 -204
-14z m403 -320 c240 -42 438 -145 608 -317 132 -133 235 -315 286 -505 24 -88
27 -115 27 -273 0 -157 -3 -185 -26 -272 -57 -209 -152 -374 -304 -523 -141
-139 -307 -232 -511 -286 -110 -29 -327 -37 -450 -15 -438 76 -778 394 -895
836 -26 98 -35 308 -18 421 33 231 150 460 316 626 255 252 620 369 967 308z"/>
</g>
</svg>
